<?xml version="1.0" encoding="utf-8"?>
<!-- Generator: Adobe Illustrator 24.0.1, SVG Export Plug-In . SVG Version: 6.00 Build 0)  -->
<svg version="1.1" id="Layer_1" xmlns="http://www.w3.org/2000/svg" xmlns:xlink="http://www.w3.org/1999/xlink" x="0px" y="0px"
	 viewBox="0 0 593 196" style="enable-background:new 0 0 593 196;" xml:space="preserve">
<style type="text/css">
	.st0{fill-rule:evenodd;clip-rule:evenodd;fill:#20221E;}
	.st1{fill:#20221E;}
	.st2{fill-rule:evenodd;clip-rule:evenodd;fill:#FFFFFF;}
	.st3{fill:#FFFFFF;}
</style>
<g>
	<path class="st0" d="M100,178.4c2.3,0.3,5.3,0.3,7.2,0.4c2.8,0.1,7.7-0.8,12.4-2.1c7.5-2.1,16-5.3,21.1-8.4
		c8.3-5,16.1-11.3,21.7-18.3c5.8-7.4,10.7-18.7,14.6-34c3.4-15,0.6-32-8.6-51.2c-2.7-4.4-4.7-7.8-8.9-10c1.1,0.1,6.6,5,7.6,5.7
		c-2.9-4-7.2-8.8-11.9-13.9c-2.7-2.7-5.1-4.5-7.1-5.7c-6-3.7-11.8-6.7-17.8-9.2C106.1,21.5,81,23.2,59.9,37
		c-14.5,9.6-25.8,23.9-31,40.5c-1.7,7.8-2.5,13.8-2.3,18.2c0.7-1.2,1.4-2.2,1.9-3c0.1,2.8,0.6,4.9,1.5,6.2c1.7,2.5,3.5,3.2,5.4,2
		c2.6-2.2,4.2-5.3,4.7-9.4c1.2-6.3,2.7-11.8,4.4-16.6c11.8-20.9,26.8-33.1,43.9-36c30.6-3.2,54.1,6.4,69.7,30.9
		c13.7,24.1,13.2,49.5-1.5,73.4C145.3,161,126.2,173,104,170.4c-3.3,0.8-8,0.4-14-0.9c-0.3,0-0.2,0.3,0,0.4c1.8,0.9,3.5,1.6,5,1.9
		c2,0.3,5.1,0.3,9.4,0.2c2.2-0.1,5.7-0.1,10.6,0.1c-4.7,0.6-8.2,1.1-12.2,1.2c-1.4-0.1-3.4-0.4-5.9-0.9c-3-0.4-6.1-0.9-9.3-1.5
		c-2.9-0.5-5.1-0.9-6.6-1.2c-1.2-0.3-2.8-1-4.9-2c-4.7-2-8.9-4.3-13-6.7c-4.1-2.3-8.1-4.7-11.1-8.2c-4.2-4.9-7.2-7.8-10.2-12.9
		c-3-5.1-5.5-10.9-7.3-16.9c-0.1,0.5,0.2,1.5,0.7,3c1.9,6.8,4.6,12.3,7.5,16.5c3.7,5.5,6.5,9.3,8.5,11.3c4.4,5.1,11.8,9.7,21.9,14.3
		c4.2,1.8,6.6,2.6,7,2.2c0.4-0.1,3.8,0.4,11.5,2.7c-1.4,0.1-5.2-0.4-11.4-1.5c-3.7-0.8-6.1-1.4-7.1-1.8c-2.7-0.9-5.4-2.4-8.3-4.3
		c-5.7-3.2-11.6-7.9-17.8-14.1c4.5,4.5,8.1,8,10.9,10.5c2.2,1.7,4.8,3.4,7.6,4.9c-0.6,0.9-3.1-0.6-5.4-2.3c-1.9-1.3-3.9-2.7-4.4-3.1
		c-0.7-0.6-1.5-1.3-2.4-2c0.6,0.7,1.6,1.7,3.1,2.9c1.4,1.3,2.7,2.5,4,3.7c1.4,1.3,2.8,2.3,4.5,3.1c1.7,0.9,4.3,2,7.7,3.3
		c2.6,1.1,5.3,1.9,7.9,2.5c8.4,2.2,14,3.4,14.5,2.9"/>
	<g>
		<path class="st1" d="M232.2,141c0,2.1-0.9,3.1-3.1,3.1H225c-2.1,0-3.1-0.9-3.1-3.1V69.7h-14.5c-2.1,0-3.1-0.9-3.1-3.1v-3.5
			c0-2.1,0.9-3.1,3.1-3.1h21.7c2.1,0,3.1,0.9,3.1,3.1V141z M232.2,40.4c0,2.1-0.9,3.1-3.1,3.1H225c-2.1,0-3.1-0.9-3.1-3.1v-3.5
			c0-2.1,0.9-3.1,3.1-3.1h4.1c2.1,0,3.1,0.9,3.1,3.1L232.2,40.4L232.2,40.4z"/>
		<path class="st1" d="M318.7,141c0,2.1-0.9,3.1-3.1,3.1h-4.1c-2.1,0-3.1-0.9-3.1-3.1V76.6c0-4.4-0.9-6.9-7-6.9h-36
			c-6.1,0-7,2.4-7,6.9V141c0,2.1-0.9,3.1-3.1,3.1H251c-2.1,0-3.1-0.9-3.1-3.1V76.3c0-13.6,5.3-16.2,16.8-16.2h37.1
			c11.5,0,16.8,2.6,16.8,16.2L318.7,141L318.7,141z"/>
		<path class="st1" d="M398.5,141c0,2.1-0.9,3.1-3.1,3.1h-58c-2.1,0-3.1-0.9-3.1-3.1v-4.6c0-2.1,0.6-3.7,2-5.3l49.8-61.2h-48.7
			c-2.1,0-3.1-0.9-3.1-3.1v-3.5c0-2.1,0.9-3.1,3.1-3.1h58c2.1,0,3.1,0.9,3.1,3.1V68c0,2.1-0.6,3.7-2,5.3l-49.8,61.2h48.7
			c2.1,0,3.1,0.9,3.1,3.1V141z"/>
		<path class="st1" d="M454.9,141.2c-0.8,2.1-1.8,2.9-4,2.9h-5.3c-2.1,0-3.2-0.8-4-2.9l-27-78.2c-0.6-1.8,0.2-2.9,2.1-2.9h4.7
			c2.1,0,3.2,0.8,4,2.9l23.1,68.6L471.6,63c0.8-2.1,1.8-2.9,4-2.9h4.6c2,0,2.7,1.1,2.1,2.9L454.9,141.2z"/>
		<path class="st1" d="M550.5,144.1h-37.1c-11.5,0-16.8-2.6-16.8-16.2v-20.2c0-13.6,5.3-16.2,16.8-16.2H557v-15c0-4.4-0.9-6.9-7-6.9
			h-48.7c-2.1,0-3.1-0.9-3.1-3.1V63c0-2.1,0.9-3.1,3.1-3.1h49.2c11.5,0,16.8,2.6,16.8,16.2v51.6
			C567.3,141.5,561.9,144.1,550.5,144.1z M557,127.7v-26.6h-43c-6.1,0-7,2.4-7,6.9v19.7c0,4.4,0.9,6.9,7,6.9h36
			C556.1,134.6,557,132.2,557,127.7z"/>
	</g>
</g>
<rect x="1142.5" y="-409.9" width="1280.5" height="1023.9"/>
<g>
	<path class="st2" d="M1573.4,183.3c2.4,0.3,5.6,0.4,7.6,0.4c3,0.1,8.2-0.8,13.2-2.2c8-2.2,17-5.7,22.5-8.9
		c8.9-5.3,17.2-12,23.1-19.5c6.2-7.8,11.4-19.9,15.6-36.2c3.7-15.9,0.6-34.1-9.2-54.5c-2.8-4.7-5-8.3-9.5-10.6c1.2,0.1,7,5.3,8.1,6
		c-3-4.3-7.7-9.4-12.7-14.7c-2.9-2.8-5.5-4.8-7.6-6.1c-6.4-3.9-12.5-7.1-18.9-9.8c-25.7-10.9-52.5-9-74.9,5.6
		c-15.4,10.2-27.4,25.4-32.9,43.1c-1.8,8.3-2.6,14.7-2.4,19.3c0.8-1.3,1.4-2.3,2-3.2c0.2,3,0.7,5.2,1.6,6.6c1.8,2.6,3.7,3.4,5.8,2.1
		c2.8-2.3,4.4-5.6,5-10c1.3-6.7,2.9-12.6,4.6-17.7c12.6-22.3,28.5-35.2,46.8-38.3c32.6-3.4,57.6,6.8,74.2,32.9
		c14.6,25.7,14.1,52.7-1.6,78.1c-12.4,18.9-32.7,31.7-56.3,28.9c-3.5,0.9-8.5,0.4-14.9-1c-0.3,0-0.2,0.3,0,0.4c2,1,3.7,1.7,5.3,2
		c2.1,0.3,5.5,0.3,10,0.2c2.3-0.1,6.1-0.1,11.3,0.1c-5,0.7-8.7,1.2-13,1.2c-1.5-0.1-3.6-0.4-6.3-0.9c-3.2-0.5-6.5-1-9.8-1.6
		c-3.1-0.6-5.4-1-7-1.3c-1.3-0.4-3-1.1-5.3-2.2c-5-2.2-9.5-4.6-13.8-7.1s-8.6-5-11.8-8.7c-4.5-5.2-7.7-8.3-10.9-13.7
		c-3.2-5.5-5.9-11.6-7.8-18c-0.1,0.6,0.2,1.6,0.7,3.1c2.1,7.2,4.9,13.1,7.9,17.6c3.9,5.9,6.9,9.9,9.1,12
		c4.7,5.4,12.6,10.3,23.3,15.2c4.5,2,7,2.7,7.5,2.3c0.4-0.1,4.1,0.5,12.2,2.8c-1.5,0.1-5.5-0.5-12.2-1.6c-3.9-0.8-6.5-1.5-7.6-1.9
		c-2.8-0.9-5.8-2.6-8.8-4.6c-6-3.4-12.3-8.4-18.9-15c4.8,4.8,8.7,8.5,11.6,11.2c2.4,1.8,5.1,3.6,8.1,5.2c-0.6,0.9-3.3-0.7-5.8-2.4
		c-2.1-1.4-4.2-2.9-4.6-3.3c-0.7-0.7-1.6-1.4-2.6-2.1c0.6,0.8,1.7,1.8,3.3,3.1c1.5,1.4,2.9,2.7,4.2,3.9c1.5,1.4,3,2.4,4.8,3.3
		c1.8,0.9,4.5,2.1,8.2,3.5c2.8,1.1,5.6,2,8.4,2.7c9,2.3,14.9,3.6,15.4,3.1"/>
	<g>
		<path class="st3" d="M1714,143.5c0,2.3-1,3.2-3.2,3.2h-4.4c-2.3,0-3.2-1-3.2-3.2V67.6h-15.4c-2.3,0-3.2-1-3.2-3.2v-3.7
			c0-2.3,1-3.2,3.2-3.2h23.1c2.3,0,3.2,1,3.2,3.2v82.8H1714z M1714,36.5c0,2.3-1,3.2-3.2,3.2h-4.4c-2.3,0-3.2-1-3.2-3.2v-3.7
			c0-2.3,1-3.2,3.2-3.2h4.4c2.3,0,3.2,1,3.2,3.2V36.5z"/>
		<path class="st3" d="M1806.1,143.5c0,2.3-1,3.2-3.2,3.2h-4.4c-2.3,0-3.2-1-3.2-3.2V75c0-4.7-1-7.3-7.5-7.3h-38.3
			c-6.5,0-7.5,2.6-7.5,7.3v68.6c0,2.3-1,3.2-3.2,3.2h-4.5c-2.3,0-3.2-1-3.2-3.2V74.7c0-14.5,5.7-17.2,17.9-17.2h39.5
			c12.2,0,17.9,2.8,17.9,17.2v68.8H1806.1z"/>
		<path class="st3" d="M1891,143.5c0,2.3-1,3.2-3.2,3.2H1826c-2.3,0-3.2-1-3.2-3.2v-4.9c0-2.3,0.6-3.9,2.1-5.7l53-65.2H1826
			c-2.3,0-3.2-1-3.2-3.2v-3.7c0-2.3,1-3.2,3.2-3.2h61.7c2.3,0,3.2,1,3.2,3.2v5c0,2.3-0.6,3.9-2.1,5.7l-53,65.2h51.8
			c2.3,0,3.2,1,3.2,3.2v3.6H1891z"/>
		<path class="st3" d="M1951,143.7c-0.8,2.3-1.9,3.1-4.2,3.1h-5.7c-2.3,0-3.4-0.8-4.2-3.1l-28.8-83.2c-0.6-1.9,0.2-3.1,2.3-3.1h5
			c2.3,0,3.4,0.8,4.2,3.1l24.5,73l24.5-73c0.8-2.3,1.9-3.1,4.2-3.1h4.9c2.1,0,2.9,1.1,2.3,3.1L1951,143.7z"/>
		<path class="st3" d="M2052.7,146.8h-39.5c-12.2,0-17.9-2.8-17.9-17.2v-21.4c0-14.5,5.7-17.2,17.9-17.2h46.5V75
			c0-4.7-1-7.3-7.5-7.3h-51.8c-2.3,0-3.2-1-3.2-3.2v-3.7c0-2.3,1-3.2,3.2-3.2h52.3c12.2,0,17.9,2.8,17.9,17.2v54.9
			C2070.6,144,2064.9,146.8,2052.7,146.8z M2059.7,129.4v-28.3h-45.8c-6.5,0-7.5,2.6-7.5,7.3v21c0,4.7,1,7.3,7.5,7.3h38.3
			C2058.7,136.7,2059.7,134.1,2059.7,129.4z"/>
	</g>
</g>
</svg>
