<svg id="Layer_1" data-name="Layer 1" xmlns="http://www.w3.org/2000/svg" viewBox="0 0 187.4 82.36"><title>asabanci</title><rect x="1.71" y="2.15" width="184.23" height="79.09" style="fill:#004990"/><path d="M34.77,67.87h-.6v.84c1.21,0,2.42-.06,3.63-.06s2.38.06,3.56.06v-.84h-.6c-.95,0-1.68,0-1.68-1.08V57.15A9,9,0,0,1,43,55.59c1.91,0,3.09.91,3.09,2.77v8.43c0,1.08-.67,1.08-1.62,1.08h-.6v.84c1.21,0,2.42-.06,3.63-.06s2.39.06,3.57.06v-.84h-.61c-.94,0-1.68,0-1.68-1.08v-8.4c0-2.54-1-4.56-3.87-4.56-2.25,0-3.9,1.11-5.81,2.44V54.16c0-.26-.11-.33-.21-.33a45.19,45.19,0,0,1-4.44,1.57V56c1.59.63,2,1,2,2.15v8.63c0,1.08-.68,1.08-1.62,1.08" style="fill:#fff"/><path d="M57.1,68.65c1.21,0,2.39.06,3.53.06v-.84h-.57c-.94,0-1.68,0-1.68-1.08V54.29c0-.26-.07-.46-.23-.46a1.23,1.23,0,0,0-.61.16c-.13.1-2,.72-3.6,1.18v.52c1.25.65,1.75.84,1.75,2.27v8.83c0,1.08-.67,1.08-1.61,1.08h-.64v.84c1.24,0,2.45-.06,3.66-.06m.47-23a1.6,1.6,0,1,0,0,3.2,1.66,1.66,0,0,0,1.65-1.63,1.62,1.62,0,0,0-1.65-1.57" style="fill:#fff;fill-rule:evenodd"/><path d="M69.29,69.2l4.85-11.69c.6-1.46,1.1-2.35,2.68-2.35v-.84c-1,0-2,.07-3.06.07-.8,0-1.61,0-2.42-.07v.84c1.42.14,1.82.2,1.78.89a7.8,7.8,0,0,1-.67,2.5l-2.79,6.71-2.35-6.19a15.28,15.28,0,0,1-1.08-3c0-.79.41-.89,1.92-.89v-.84c-1.18,0-2.32.07-3.49.07s-2.26,0-3.37-.07v.84c1.28,0,1.62,0,2.59,2.51L68.45,69.2Z" style="fill:#fff"/><path d="M90,59.53a3.82,3.82,0,0,0,0-.59c0-3.45-3-5.11-5.68-5.11-2.35,0-6.79,1.89-6.79,8.27,0,2.09,1.08,7.1,6.42,7.1,2.76,0,4.67-1.69,6.22-3.68l-.47-.45a6.53,6.53,0,0,1-4.54,2.18c-2.69,0-4.74-2.54-4.94-5.64a7.68,7.68,0,0,1,0-1.89h9.45Zm-5.79-4.66a2.8,2.8,0,0,1,2.93,3c0,.39-.1.81-.94.81H80.3c.4-2.34,1.81-3.81,3.86-3.81" style="fill:#fff;fill-rule:evenodd"/><path d="M96.16,68.65c1.44,0,2.86,0,4.7.06v-.84H99c-.94,0-1.61,0-1.61-1.08V59.14a2.79,2.79,0,0,1,2.45-2.71c1.18,0,1.18.79,2.22.79a1.61,1.61,0,0,0,1.58-1.67,1.81,1.81,0,0,0-1.91-1.72c-2,0-3.47,2.08-4.31,3.35h-.06V54.26c0-.33-.1-.43-.31-.43s-1.64.85-4.1,1.86v.48c.51.26,1.75.46,1.75,1.47v9.15c0,1.08-.67,1.08-1.61,1.08h-.91v.84c1.21,0,2.62-.06,4-.06" style="fill:#fff"/><path d="M106,68.09a9.12,9.12,0,0,0,4.11,1.11c4,0,5.78-2.28,5.78-4.42,0-5.12-7.8-4-7.8-7.76,0-1.4,1.28-2.15,2.62-2.15a3.42,3.42,0,0,1,3.67,3.23h.77L115,54.78a9.08,9.08,0,0,0-3.83-1c-3.7,0-5.21,2.34-5.21,4.17,0,5.24,7.33,4,7.33,7.85,0,1.14-.74,2.31-2.73,2.31-2.45,0-3.79-1.83-4.23-4l-.6.16Z" style="fill:#fff"/><path d="M122.55,68.65c1.21,0,2.39.06,3.54.06v-.84h-.57c-1,0-1.69,0-1.69-1.08V54.29c0-.26-.07-.46-.23-.46A1.35,1.35,0,0,0,123,54a36.82,36.82,0,0,1-3.6,1.17v.53c1.25.65,1.75.84,1.75,2.28v8.82c0,1.08-.67,1.08-1.61,1.08h-.64v.84c1.24,0,2.46-.06,3.66-.06M126,43.24a1.6,1.6,0,1,0,0,3.19,1.65,1.65,0,0,0,1.65-1.63A1.62,1.62,0,0,0,126,43.24" style="fill:#fff;fill-rule:evenodd"/><path d="M138.22,56.19V54.43h-5V51.11h-.4a14.35,14.35,0,0,1-4.51,4.56v.52h2.22v10c0,1.92,1,3,3.19,3A6.45,6.45,0,0,0,138.18,67l-.5-.49a3.39,3.39,0,0,1-2.35.94c-.91,0-2.12-.58-2.12-2.73v-8.5Z" style="fill:#fff"/><path d="M152.8,59.79a2.93,2.93,0,0,0,0-.59c0-3.45-3-5.11-5.68-5.11-2.36,0-6.8,1.89-6.8,8.27,0,2.08,1.08,7.1,6.43,7.1,2.75,0,4.67-1.69,6.21-3.68l-.46-.46A6.52,6.52,0,0,1,148,67.51c-2.69,0-4.75-2.54-4.95-5.64a9,9,0,0,1,0-1.89h9.45ZM147,55.13a2.8,2.8,0,0,1,2.93,3c0,.39-.1.81-.94.81h-5.85c.4-2.34,1.81-3.81,3.86-3.81" style="fill:#fff;fill-rule:evenodd"/><path d="M156,68.25a9.12,9.12,0,0,0,4.11,1.11c4,0,5.78-2.28,5.78-4.43,0-5.12-7.8-3.94-7.8-7.75,0-1.4,1.28-2.15,2.62-2.15a3.4,3.4,0,0,1,3.66,3.22h.78l-.24-3.32A9.06,9.06,0,0,0,161,54c-3.7,0-5.21,2.34-5.21,4.17,0,5.24,7.33,4,7.33,7.84,0,1.14-.74,2.32-2.72,2.32-2.46,0-3.81-1.83-4.24-4l-.61.16Z" style="fill:#fff"/><path d="M172.15,68.75c1.21,0,2.39.07,3.53.07V68h-.57c-.94,0-1.68,0-1.68-1.08V54.39c0-.26-.07-.45-.24-.45a1.22,1.22,0,0,0-.6.16c-.14.09-2,.71-3.6,1.17v.52c1.25.65,1.75.85,1.75,2.28v8.82c0,1.08-.67,1.08-1.61,1.08h-.64v.85c1.24,0,2.45-.07,3.66-.07m2-36.2a1.6,1.6,0,1,0,0,3.19,1.65,1.65,0,0,0,1.65-1.63,1.62,1.62,0,0,0-1.65-1.56" style="fill:#fff;fill-rule:evenodd"/><path d="M13.46,32.84a1.68,1.68,0,0,0-1.64,1.56A1.69,1.69,0,0,0,13.46,36a1.65,1.65,0,0,0,1.65-1.63,1.62,1.62,0,0,0-1.65-1.56" style="fill:#fff"/><path d="M27.61,38.09a1.6,1.6,0,1,0,0,3.19,1.65,1.65,0,0,0,1.65-1.63,1.62,1.62,0,0,0-1.65-1.56" style="fill:#fff"/><path d="M29.43,46.45c-1.41,0-2.82,0-4.24-.07v.85c3,.09,3.2-.4,3.2,4.94v9.28c0,2.25-.54,6.42-6.12,6.42-5.25,0-6.56-3.75-6.56-7.63V49.57c0-2.27,1.28-2.31,3.07-2.34v-.85c-1.69,0-3.23.07-4.78.07s-3.06,0-4.64-.07v.85c1.78,0,3.06.07,3.06,2.34V61.06c.1,5.53,3.43,8.14,9,8.14,5.91,0,8.77-3.32,8.77-7.75V52.07c0-4,0-4.84,2.66-4.84v-.85c-1.15,0-2.26.07-3.4.07" style="fill:#fff;fill-rule:evenodd"/><path d="M44.34,36.77c3.93,0,7.83-2.36,7.83-6.55,0-7.43-10.26-5.78-10.26-11.79a3.84,3.84,0,0,1,4-4.13,4,4,0,0,1,4.3,3.58H51l-.53-4.13a29,29,0,0,0-4.06-.48c-4.07,0-7.14,2.16-7.14,6.32,0,7.62,9.87,5.85,9.87,11.85a4.31,4.31,0,0,1-4.57,4.3c-2.77,0-4.63-2.36-5.2-4.78h-.76l.66,4.71a12.6,12.6,0,0,0,5.1,1.1" style="fill:#fff"/><path d="M60.18,35.25a2.36,2.36,0,0,1-2.37-2.32c0-2.42,4.33-3.17,6-3.81v4.26c-1.1.93-2.1,1.87-3.66,1.87M67.71,35c-.74,0-1.2-.51-1.2-1.83V24.24c0-1.77-2.57-2.71-4.07-2.71a6,6,0,0,0-3,1c-2.33,1.17-3.83,2-3.83,3.68a.59.59,0,0,0,.6.65c.8,0,1.87-.45,1.87-1.35a2.28,2.28,0,0,1,2.53-2.27c2.13,0,3.23,1,3.23,2.78v2.13c-7.2,2.39-8.56,2.87-8.7,5.46a3.31,3.31,0,0,0,3.6,3.13c2.07,0,3.57-1,5.14-2.39.06,1.16.69,2.39,2.06,2.39A5.11,5.11,0,0,0,69.24,35l-.3-.54a1.68,1.68,0,0,1-1.23.54" style="fill:#fff;fill-rule:evenodd"/><path d="M75.25,11.62a3.4,3.4,0,0,0-.73.35,20.48,20.48,0,0,1-3.44,1.39v.52c1.27.35,1.77.42,1.77,2.52V30.28A36.56,36.56,0,0,1,72.38,36l.7.35,1-.74a10.15,10.15,0,0,0,4.63,1.13c4.77,0,8-4.23,8-8.46,0-3.52-2.33-6.78-6.2-6.78-1.83,0-3.63,1.23-5,2.33V12.07c0-.26-.07-.45-.27-.45m3.43,11.65c2.6,0,5.33,2.91,5.33,6.4,0,2.87-1.49,6.26-5.06,6.26a3.51,3.51,0,0,1-3.43-3.29V24.79a5.21,5.21,0,0,1,3.16-1.52" style="fill:#fff;fill-rule:evenodd"/><path d="M94.4,35.31A2.36,2.36,0,0,1,92,33c0-2.42,4.33-3.16,6-3.81v4.26c-1.1.94-2.1,1.88-3.67,1.88m7.53-.23c-.73,0-1.19-.52-1.19-1.84V24.3c0-1.78-2.57-2.72-4.07-2.72a5.77,5.77,0,0,0-3,1c-2.33,1.16-3.83,2-3.83,3.68a.58.58,0,0,0,.6.64c.8,0,1.86-.45,1.86-1.36a2.28,2.28,0,0,1,2.53-2.25c2.14,0,3.24,1,3.24,2.77v2.13c-7.2,2.4-8.57,2.88-8.7,5.46A3.31,3.31,0,0,0,93,36.82c2.06,0,3.57-1,5.13-2.39.07,1.16.7,2.39,2.07,2.39a5.16,5.16,0,0,0,3.3-1.74l-.3-.55a1.66,1.66,0,0,1-1.24.55" style="fill:#fff;fill-rule:evenodd"/><path d="M106.29,35.44h-.61v.85c1.21,0,2.41-.07,3.61-.07s2.36.07,3.53.07v-.85h-.6c-.93,0-1.67,0-1.67-1.06V24.82a9,9,0,0,1,3.87-1.55c1.9,0,3.07.91,3.07,2.75v8.36c0,1.06-.67,1.06-1.6,1.06h-.61v.85c1.2,0,2.4-.07,3.61-.07s2.36.07,3.53.07v-.85h-.6c-.94,0-1.67,0-1.67-1.06V26.05c0-2.52-1-4.52-3.83-4.52-2.23,0-3.87,1.1-5.77,2.42v-2.1c0-.25-.1-.32-.2-.32a45.18,45.18,0,0,1-4.4,1.55v.61c1.57.62,1.94.94,1.94,2.13v8.56c0,1.06-.67,1.06-1.6,1.06" style="fill:#fff"/><path d="M132.65,34.38c-3.63,0-5.83-2.93-5.83-6.26,0-2.46,1.5-5.56,4.36-5.56,3.13,0,3.07,2.62,4.47,2.62a1.31,1.31,0,0,0,1.26-1.42c0-1.71-2.79-2.23-4.49-2.23a8.29,8.29,0,0,0-8.27,8.56,7,7,0,0,0,6.63,6.68,8.9,8.9,0,0,0,6.5-3.36l-.57-.55a6.25,6.25,0,0,1-4.06,1.52" style="fill:#fff"/><path d="M143.05,36.22c1.2,0,2.37.06,3.5.06v-.84H146c-.94,0-1.67,0-1.67-1.06V22c0-.27-.07-.46-.24-.46a1.17,1.17,0,0,0-.59.16c-.14.1-2,.71-3.57,1.16v.52c1.23.65,1.73.84,1.73,2.26v8.75c0,1.06-.66,1.06-1.6,1.06h-.63v.84c1.23,0,2.43-.06,3.63-.06" style="fill:#fff"/></svg>