<?xml version="1.0" encoding="UTF-8" standalone="no"?>
<svg
   xmlns:dc="http://purl.org/dc/elements/1.1/"
   xmlns:cc="http://creativecommons.org/ns#"
   xmlns:rdf="http://www.w3.org/1999/02/22-rdf-syntax-ns#"
   xmlns:svg="http://www.w3.org/2000/svg"
   xmlns="http://www.w3.org/2000/svg"
   height="396"
   width="276.74005"
   version="1.1"
   viewBox="0 0 276.74005 395.99999"
   data-name="Layer 1"
   id="Layer_1">
  <metadata
     id="metadata3809">
    <rdf:RDF>
      <cc:Work
         rdf:about="">
        <dc:format>image/svg+xml</dc:format>
        <dc:type
           rdf:resource="http://purl.org/dc/dcmitype/StillImage" />
        <dc:title>hibit_logo</dc:title>
      </cc:Work>
    </rdf:RDF>
  </metadata>
  <defs
     id="defs3807" />
  <title
     id="title3762">hibit_logo</title>
  <path
     style="fill:#f9f9f9"
     id="path3764"
     d="m 227.49879,264.70644 c 1.39,0.59 1.54,1 1.46,2.49 a 7,7 0 0 0 0.32,2.66 73.94,73.94 0 0 0 3.06,7.49 c 1.62,3.29 3.45,6.48 5.26,9.68 a 90.88,90.88 0 0 0 13,17.89 67.57,67.57 0 0 0 12.77,11 7.31,7.31 0 0 0 3.37,1.1 c 2.4,0.2 4.79,0.46 7.17,0.73 1.69,0.2 2.33,1 2.23,2.73 0,0.83 0,1.66 0,2.49 0.08,1.73 -0.8,2.51 -2.52,2.3 q -7.63,-1 -15.27,-1.87 c -5.28,-0.63 -10.55,-1.27 -15.83,-1.87 -4.48,-0.51 -9,-1 -13.54,-1.47 v 22.38 c -1.58,0 -3.08,0.07 -4.57,0 -0.91,-0.06 -1.5,-1 -1.51,-2.2 q 0,-6.8 0,-13.6 v -0.8 h -8.3 v 16.6 h -5.67 v -0.84 c 0,-7 0,-14 0,-21 a 1.11,1.11 0 0 0 -0.61,-1.08 c -1.9,-1.27 -3.75,-2.61 -5.61,-3.93 l -0.77,-0.55 c 0,0.42 -0.11,0.71 -0.12,1 0,1 0,2 0,3 a 1.73,1.73 0 1 1 -3.46,0 c 0,-2 0,-4 0,-6 a 2.24,2.24 0 0 0 -1.07,-2 c -0.9,-0.6 -1.77,-1.24 -2.76,-1.93 0,0.65 -0.1,1.2 -0.1,1.74 0,3.24 0,6.48 0,9.72 a 6.51,6.51 0 0 1 -0.08,1.17 1.8,1.8 0 0 1 -2.87,1.12 1.73,1.73 0 0 1 -0.61,-1.54 c 0,-4.19 0,-8.37 0,-12.56 0,-1.34 -0.19,-1.56 -1.52,-1.87 -0.56,-0.13 -1.11,-0.32 -1.67,-0.46 -0.56,-0.14 -0.86,0 -0.87,0.67 0,1.18 0,2.36 0,3.54 v 15.06 a 1.93,1.93 0 0 1 -1.82,1.75 2.13,2.13 0 0 1 -1.65,-1.86 q 0,-9.37 0,-18.74 c 0,-0.93 -0.14,-1 -1,-1 h -2 c -0.92,0 -1,0.1 -1,1.06 v 14.16 c 0,1.57 0,3.15 0,4.72 a 1.66,1.66 0 0 1 -2.43,1.63 1.35,1.35 0 0 1 -1,-1.19 c 0,-0.46 0,-0.92 0,-1.38 v -18 c 0,-0.11 0,-0.23 0,-0.5 -1.2,0.41 -2.37,0.75 -3.46,1.25 -0.27,0.13 -0.41,0.8 -0.41,1.22 0,3.93 0,7.86 0,11.8 q 0,0.45 0,0.9 a 1.71,1.71 0 0 1 -1.88,1.77 1.63,1.63 0 0 1 -1.7,-1.84 c 0,-3.61 0,-7.22 0,-10.83 a 11.8,11.8 0 0 0 -0.18,-1.27 c -1.26,1.06 -2.38,1.94 -3.41,2.92 a 2,2 0 0 0 -0.34,1.28 c 0,1.69 0,3.38 0,5.07 a 6.79,6.79 0 0 1 -0.05,0.9 1.67,1.67 0 0 1 -1.6,1.53 1.57,1.57 0 0 1 -1.76,-1.33 22.65,22.65 0 0 1 -0.13,-2.62 c 0,-0.45 -0.05,-0.9 -0.09,-1.56 a 35.49,35.49 0 0 1 -23.3,8.59 c -8.57,0.11 -16.45,-2 -23.29,-7.77 0,1 0,1.92 0,2.79 a 1.72,1.72 0 0 1 -2,1.77 1.68,1.68 0 0 1 -1.47,-1.74 c 0,-1.67 0,-3.33 0,-5 a 1.23,1.23 0 0 0 -0.53,-1.1 c -1.13,-0.88 -2.22,-1.8 -3.46,-2.82 v 0.91 c 0,3.4 0,6.8 0,10.2 a 1.58,1.58 0 0 1 -1.58,1.8 1.74,1.74 0 0 1 -2,-1.6 7.18,7.18 0 0 1 0,-1 v -11.84 c 0,-1.1 -0.08,-1.22 -1.14,-1.59 -0.89,-0.31 -1.79,-0.58 -2.769999,-0.9 v 0.86 q 0,9.19 0,18.39 c 0,1.19 -0.39,1.76 -1.34,1.95 a 1.62,1.62 0 0 1 -2.14,-1.74 c 0,-2.41 0,-4.81 0,-7.22 v -11.64 c 0,-0.93 -0.11,-1 -1,-1 h -2.28 c -0.44,0 -0.71,0.17 -0.71,0.65 0,0.48 0,0.7 0,1 v 17 a 3.87,3.87 0 0 0 0,0.76 c 0.19,1 -0.39,1.59 -1.2,2 -0.81,0.41 -2.39,-0.41 -2.39,-1.41 v -18.44 c 0,-1.07 -0.16,-1.19 -1.18,-0.91 -0.51,0.14 -1,0.3 -1.53,0.41 -1.08,0.24 -1.36,0.56 -1.36,1.65 0,4.26 0,8.52 0,12.78 a 1.63,1.63 0 0 1 -1.89,1.83 1.55,1.55 0 0 1 -1.56,-1.32 5.72,5.72 0 0 1 -0.11,-1.24 c 0,-3.12 0,-6.25 0,-9.37 0,-0.67 -0.06,-1.34 -0.1,-2.2 -1.21,0.92 -2.36,1.68 -3.37,2.6 a 2.34,2.34 0 0 0 -0.44,1.53 c -0.05,2 0,3.93 0,5.9 a 1.72,1.72 0 0 1 -1.71,1.86 1.7,1.7 0 0 1 -1.76,-1.88 c 0,-1.06 0,-2.12 0,-3.18 a 7,7 0 0 0 -0.09,-0.72 5.38,5.38 0 0 0 -0.69,0.42 c -1,0.86 -2.09,1.74 -3.13,2.61 a 0.26,0.26 0 0 1 -0.11,0.07 c -1.35,0.26 -1.46,1.18 -1.45,2.36 0,7 0,14 0,21 v 0.86 h -5.9 v -16.62 h -8.32 v 14.29 a 7.77,7.77 0 0 1 -0.07,1 1.38,1.38 0 0 1 -1.27,1.35 15.3,15.3 0 0 1 -3.1,0 1.69,1.69 0 0 1 -1.59,-1.79 c 0,-0.64 0,-1.29 0,-1.94 v -18.65 c -2,0.21 -4,0.39 -5.94,0.61 -4,0.43 -8,0.86 -12.06,1.33 -4.06,0.47 -7.88,1 -11.83,1.45 l -13.1399998,1.61 q -0.82,0.09 -1.65,0.21 a 2.17,2.17 0 0 1 -2.53999999,-1.18 v -5 a 2.74,2.74 0 0 1 2.18999999,-1.29 c 2.34,-0.23 4.68,-0.52 7,-0.75 a 7,7 0 0 0 3.4999998,-1.14 82.65,82.65 0 0 0 19.74,-19.48 128.32,128.32 0 0 0 14,-25.6 6.85,6.85 0 0 0 0.64,-3.63 2.15,2.15 0 0 1 1.42,-2.53 h 2.78 c 0.95,0.28 1.74,0.72 1.8,1.87 0,0.15 0,0.31 0.07,0.45 h 8.3 v -2.19 h 5.68 c 0,0.25 0.07,0.47 0.08,0.7 q 0.17,6.69 0.32,13.37 c 0,1.16 -0.07,2.34 -0.08,3.49 -0.1,8.35 -0.05,16.71 -0.05,25.06 a 3.71,3.71 0 0 0 0.06,0.45 0.81,0.81 0 0 0 0.18,-0.08 l 0.74,-0.62 a 38.63,38.63 0 0 1 9.34,-6.3 37.25,37.25 0 0 1 24.919999,-2.07 c 4,1 7.77,2.42 10.78,5.39 0.79,0.78 1.63,1.51 2.45,2.25 0.17,0.16 0.36,0.31 0.66,0.56 v -0.91 c 0,-1.39 0,-2.78 0,-4.17 a 1.7906982,1.7906982 0 1 1 3.58,0.1 c 0,2.34 0,4.68 0.05,7 a 2.19,2.19 0 0 0 0.49,1.45 c 1,0.86 2.07,1.59 3.25,2.47 0,-0.66 0.09,-1.11 0.09,-1.57 q 0,-5.82 0,-11.66 a 1.8,1.8 0 0 1 1.85,-1.91 1.69,1.69 0 0 1 1.77,1.86 c 0,1.13 0,2.27 0,3.4 0,3.45 0,6.9 0,10.34 0,0.39 0.18,1 0.44,1.13 1.12,0.43 2.3,0.7 3.54,1.06 v -1 q 0,-9.59 0,-19.16 a 1.87,1.87 0 0 1 0.34,-1.2 2,2 0 0 1 2.22,-0.54 c 0.79,0.32 0.91,1 0.9,1.71 0,0.23 0,0.47 0,0.7 v 18.45 c 0,0.21 0,0.42 0,0.63 0,0.55 0.27,0.8 0.79,0.82 0.52,0.02 1.11,0 1.67,0 1.4,0 1.5,-0.13 1.45,-1.5 0,-0.17 0,-0.33 0,-0.49 v -17.9 c 0,-0.23 0,-0.46 0,-0.69 a 2.22,2.22 0 0 1 2.24,-1.88 c 1,0 1.46,0.7 1.47,2 v 19.77 c 1.06,-0.37 2,-0.75 3,-1 a 1.3,1.3 0 0 0 1,-1.47 c 0,-4.24 0,-8.47 0,-12.71 a 4.49,4.49 0 0 1 0.14,-1.16 1.7,1.7 0 0 1 3.21,0 4,4 0 0 1 0.13,1.09 c 0,3.43 0,6.85 0,10.27 0,0.52 0.08,1 0.14,1.65 a 4.13,4.13 0 0 0 0.52,-0.28 c 1,-0.82 2,-1.63 3,-2.49 a 1.24,1.24 0 0 0 0.36,-0.82 c 0,-2 0,-4.07 0,-6.1 a 4.57,4.57 0 0 1 0.06,-0.83 c 0.19,-0.93 0.75,-1.31 1.84,-1.25 a 1.41,1.41 0 0 1 1.54,1.44 c 0,0.93 0,1.85 0,2.78 0,0.4 0.07,0.79 0.11,1.28 l 0.81,-0.52 a 71.92,71.92 0 0 1 6.19,-3.81 36.88,36.88 0 0 1 27.31,-2.17 35.31,35.31 0 0 1 13.65,7.84 c 0.89,0.79 1.81,1.54 2.85,2.41 v -43 c 0,-1.16 0,-1.15 1.07,-1.61 a 0.88,0.88 0 0 0 0.15,-0.12 h 4.45 v 2.27 h 8.37 a 2.18,2.18 0 0 1 1.76,-2.33 z m 1.68,13.75 h -0.18 v 0.74 c 0,4.38 0.08,8.75 0,13.12 a 6.93,6.93 0 0 0 1.49,4.54 81,81 0 0 0 17.49,18.16 2.66,2.66 0 0 0 1.17,0.47 c 1.36,0.16 2.72,0.3 4.08,0.36 1.36,0.06 3,0 4.41,0 l -0.31,-0.27 c -2.43,-2.13 -4.95,-4.17 -7.27,-6.42 a 92.56,92.56 0 0 1 -17.57,-24.28 q -1.68,-3.18 -3.31,-6.42 z m -210.579999,37.59 c 0.39,0 0.57,0 0.74,0 2,-0.15 4,-0.34 6.08,-0.46 a 7.66,7.66 0 0 0 4.48,-1.62 81.35,81.35 0 0 0 17,-18.29 3.31,3.31 0 0 0 0.54,-1.75 c 0,-4.88 0,-9.76 0,-14.64 v -0.64 l -0.17,-0.05 c -6.88,14.44 -15.59,27.51 -28.67,37.45 z m 195.999999,-2.74 8.26,0.35 v -16.21 h -8.26 z m -160.999999,-15.86 v 16.23 c 2.24,-0.09 4.39,-0.14 6.53,-0.28 a 1.77,1.77 0 0 0 1.74,-2 v -14 z m 175.449999,16.53 13.2,1.06 0.06,-0.17 a 84.36,84.36 0 0 1 -13.26,-13.63 z m -194.609999,0.86 13,-0.87 v -12.66 a 96.75,96.75 0 0 1 -13,13.53 z m 180.759999,-37.45 -0.22,-0.07 a 4,4 0 0 0 -0.35,1.06 c 0,4 0,8 0,12 a 5.72,5.72 0 0 0 0,0.59 h 7.75 z m -160.999999,13.62 h 7.61 c 0,-0.65 0,-1.25 0,-1.85 q 0,-4.9 0.1,-9.83 a 2.41,2.41 0 0 0 -0.65,-2 c -2.32,4.56 -4.66,9.08 -7.03,13.68 z m 168.539999,-6.61 h 0.11 v -12.44 l -4.69,3.27 z m -169.139999,-0.06 0.24,0.09 4.47,-9.22 -4.71,-3.28 z" />
  <path
     style="fill:#f9f9f9"
     id="path3766"
     d="m 100.30879,356.12644 c 2.77,1.7 3.55,4.26 3.2,7.2 -0.46,3.9 -2.72,5.93 -6.709999,6.25 -0.25,0 -0.51,0 -0.76,0 h -10.58 v -26 h 10.36 c 5.169999,0 8.399999,4.32 6.999999,9.31 a 5.22,5.22 0 0 1 -2.51,3.24 z m -10.869999,8.89 c 2.28,0 4.48,0 6.67,0 a 4.49,4.49 0 0 0 1.6,-0.4 2.89,2.89 0 0 0 1.37,-4.32 4.17,4.17 0 0 0 -3.64,-1.92 c -1.85,0 -3.7,0 -5.55,0 a 3.26,3.26 0 0 0 -0.45,0.05 z m 0,-11 h 6.37 a 5.78,5.78 0 0 0 1.17,-0.16 2.56,2.56 0 0 0 2,-3.16 3.16,3.16 0 0 0 -3.33,-2.63 c -1.82,0 -3.65,0 -5.47,0 h -0.7 z" />
  <path
     style="fill:#f9f9f9"
     id="path3768"
     d="m 144.01879,365.03644 h 13.29 v 4.53 h -17.37 v -6.73 c 0,-4.42 2.54,-7.22 6.93,-7.65 1.13,-0.11 2.27,-0.11 3.38,-0.27 a 3.12,3.12 0 0 0 3,-2.58 3.78,3.78 0 0 0 -1.86,-4 5.62,5.62 0 0 0 -5.38,-0.1 c -1.19,0.61 -1.65,1.34 -2,3 h -4 a 7.22,7.22 0 0 1 2.36,-5.71 9,9 0 0 1 7.32,-2 8.53,8.53 0 0 1 5.66,2.62 c 1.82,2 2.07,4.46 1.84,7 a 8.31,8.31 0 0 1 -0.27,1.49 c -0.75,2.8 -2.76,4.43 -5.89,4.76 -1.24,0.13 -2.49,0.14 -3.72,0.29 a 5.76,5.76 0 0 0 -1.71,0.53 2.59,2.59 0 0 0 -1.59,2.2 c -0.05,0.79 0.01,1.67 0.01,2.62 z" />
  <path
     style="fill:#f9f9f9"
     id="path3770"
     d="m 184.50879,365.03644 h 13.31 v 4.54 h -17.33 c 0,-0.24 0,-0.46 0,-0.69 v -6.11 c 0,-4.36 2.53,-7.17 6.89,-7.61 1.17,-0.12 2.36,-0.11 3.52,-0.29 a 3,3 0 0 0 2.81,-2.39 3.6,3.6 0 0 0 -1.43,-3.93 5.48,5.48 0 0 0 -5.85,-0.31 3.31,3.31 0 0 0 -1.83,2.9 h -4 a 7.24,7.24 0 0 1 3.29,-6.38 10.26,10.26 0 0 1 11.5,0.73 6.74,6.74 0 0 1 2.4,4.91 15.08,15.08 0 0 1 -0.3,4.19 c -0.65,2.81 -2.74,4.41 -5.88,4.73 -1.22,0.13 -2.45,0.13 -3.66,0.28 a 6,6 0 0 0 -1.83,0.59 2.67,2.67 0 0 0 -1.54,2.31 c -0.11,0.81 -0.07,1.62 -0.07,2.53 z" />
  <path
     style="fill:#f9f9f9"
     id="path3772"
     d="m 178.64879,356.63644 a 19.39,19.39 0 0 1 -0.56,6.26 c -1.08,3.5 -3.16,6.07 -6.84,7 -4.25,1 -8.38,-1.22 -10.22,-5.46 a 13.38,13.38 0 0 1 -1.1,-5.32 c 0,-2.2 0,-4.4 0.15,-6.58 a 10.53,10.53 0 0 1 3.21,-6.9 8.72,8.72 0 0 1 13.85,2.47 13.52,13.52 0 0 1 1.51,6.06 c 0.02,0.81 0,1.67 0,2.47 z m -3.91,0 h -0.14 c 0,-0.62 0,-1.25 0,-1.87 a 8.72,8.72 0 0 0 -1.09,-4.39 4.73,4.73 0 0 0 -7.87,-0.86 7.5,7.5 0 0 0 -1.41,2.89 22.55,22.55 0 0 0 -0.2,7.24 8.66,8.66 0 0 0 0.91,3.1 4.71,4.71 0 0 0 7.53,1.45 5.65,5.65 0 0 0 1.83,-3.35 c 0.3,-1.35 0.3,-2.76 0.44,-4.16 z" />
  <path
     style="fill:#f9f9f9"
     id="path3774"
     d="m 219.16879,356.69644 a 19.29,19.29 0 0 1 -0.56,6.19 c -1.08,3.49 -3.15,6.07 -6.83,7 a 8.69,8.69 0 0 1 -10.18,-5.48 14.9,14.9 0 0 1 -1.08,-4.55 55.54,55.54 0 0 1 0.1,-7.41 10.31,10.31 0 0 1 3.19,-6.82 8.72,8.72 0 0 1 13.86,2.44 13.62,13.62 0 0 1 1.51,6.06 c 0.01,0.85 -0.01,1.71 -0.01,2.57 z m -3.91,0 h -0.11 c 0,-0.62 0,-1.25 0,-1.87 a 8.72,8.72 0 0 0 -1.09,-4.39 c -1.8,-3.05 -5.68,-3.51 -7.87,-0.86 a 7.36,7.36 0 0 0 -1.41,2.89 22.69,22.69 0 0 0 -0.19,7.31 8.55,8.55 0 0 0 0.9,3 4.71,4.71 0 0 0 7.53,1.45 5.65,5.65 0 0 0 1.83,-3.35 c 0.23,-1.38 0.28,-2.79 0.41,-4.19 z" />
  <path
     style="fill:#f9f9f9"
     id="path3776"
     d="m 73.858791,343.83644 v 25.74 h -4 v -10.33 h -10.49 v 10.31 h -4 v -25.72 h 4 v 10.79 h 10.47 v -10.79 z" />
  <path
     style="fill:#f9f9f9"
     id="path3778"
     d="m 120.92879,348.08644 h -6.77 v -4.4 h 17.55 v 4.37 h -6.72 v 21.5 h -4.06 z" />
  <path
     style="fill:#f9f9f9"
     id="path3780"
     d="m 77.818791,343.67644 h 3.94 v 25.87 h -3.94 z" />
  <path
     style="fill:#f9f9f9"
     id="path3782"
     d="m 110.46879,369.56644 h -3.94 v -25.87 h 3.94 z" />
  <path
     style="fill:#f9f9f9"
     id="path3784"
     d="m 149.07879,384.83644 c 2.31,-2.54 5.09,-2.83 8.07,-2 a 5.35,5.35 0 0 1 4.16,5.71 5.41,5.41 0 0 1 -4.29,5.13 c -2.95,0.78 -5.34,0.17 -7.89,-2.05 v 2.14 h -1.31 v -15.8 h 1.26 z m 5.52,8.15 a 20.23,20.23 0 0 0 2.85,-0.77 4.06,4.06 0 0 0 2.56,-4 4.12,4.12 0 0 0 -2.45,-4 6.58,6.58 0 0 0 -5.82,0 4.39,4.39 0 0 0 0.15,8.1 20.57,20.57 0 0 0 2.71,0.64 z" />
  <path
     style="fill:#f9f9f9"
     id="path3786"
     d="m 126.05879,384.77644 v -2.21 h 1.28 v 11.16 h -1.27 v -2.28 a 6.6,6.6 0 0 1 -4.27,2.39 8,8 0 0 1 -4.59,-0.67 5.41,5.41 0 0 1 0.71,-10.2 7.48,7.48 0 0 1 8.14,1.81 z m -5.28,-1.31 a 7.78,7.78 0 0 0 -3.47,1.06 4.29,4.29 0 0 0 0.07,7.38 6.34,6.34 0 0 0 6.36,0.18 4.33,4.33 0 0 0 -0.25,-7.88 18.65,18.65 0 0 0 -2.71,-0.74 z" />
  <path
     style="fill:#f9f9f9"
     id="path3788"
     d="m 132.98879,384.44644 c 2.28,-2.69 6.72,-2.4 8.81,-1 a 4.33,4.33 0 0 1 1.88,2.88 6,6 0 0 1 0.07,1 c 0,2.1 0,4.2 0,6.34 h -1.32 v -6.07 c 0,-2.37 -1.15,-3.74 -3.51,-4 a 8.07,8.07 0 0 0 -2.94,0.16 3.85,3.85 0 0 0 -3,4 c 0,1.92 0,3.84 0,5.76 a 0.51,0.51 0 0 1 0,0.17 h -1.22 v -11.12 h 1.27 z" />
  <path
     style="fill:#f9f9f9"
     id="path3790"
     d="m 177.07879,393.72644 h -1.28 v -1.73 c -2.49,2.28 -5.21,2.41 -8,1.2 a 4.18,4.18 0 0 1 -2.62,-4.13 c 0,-2 0,-3.93 0,-5.9 0,-0.2 0,-0.4 0,-0.62 h 1.28 v 6 c 0,2.45 1.07,3.72 3.5,4.13 a 5.47,5.47 0 0 0 4.18,-0.78 4,4 0 0 0 1.69,-3.53 c 0,-1.69 0,-3.38 0,-5.06 v -0.79 h 1.27 z" />
  <path
     style="fill:#f9f9f9"
     id="path3792"
     d="m 88.598791,391.71644 1,-0.76 a 7.36,7.36 0 0 0 7.16,1.56 3.46,3.46 0 0 0 0.89,-0.36 1.62,1.62 0 0 0 0.93,-1.58 1.42,1.42 0 0 0 -1.09,-1.3 c -0.88,-0.27 -1.78,-0.46 -2.68,-0.65 -0.9,-0.19 -2.09,-0.36 -3.13,-0.56 a 4.41,4.41 0 0 1 -1,-0.35 2.3,2.3 0 0 1 -1.53,-2 2.26,2.26 0 0 1 1.31,-2.4 11.32,11.32 0 0 1 3,-0.85 8.27,8.27 0 0 1 4.55,0.6 c 0.45,0.2 0.88,0.48 1.32,0.73 -0.62,0.88 -0.6,0.85 -1.41,0.44 a 7.78,7.78 0 0 0 -6.18,-0.32 1.92,1.92 0 0 0 -0.25,0.12 1.56,1.56 0 0 0 -1,1.44 1.41,1.41 0 0 0 1.01,1.36 c 0.92,0.28 1.87,0.48 2.81,0.68 0.94,0.2 2.05,0.36 3.06,0.57 a 4.46,4.46 0 0 1 1.1,0.42 2.43,2.43 0 0 1 0.31,4.29 7.62,7.62 0 0 1 -2.89,1 8.67,8.67 0 0 1 -6,-1.05 14.76,14.76 0 0 1 -1.29,-1.03 z" />
  <path
     style="fill:#f9f9f9"
     id="path3794"
     d="m 110.91879,382.46644 v 1 h -4.4 c -0.07,0.12 -0.12,0.18 -0.12,0.24 0,2.31 0,4.63 0,6.94 0.06,1.71 0.82,2.33 2.54,2.23 a 18.6,18.6 0 0 0 2,-0.34 l 0.4,0.74 a 5.11,5.11 0 0 1 -5.13,0 3.07,3.07 0 0 1 -1.09,-2.58 c 0,-2.11 0,-4.21 0,-6.31 v -0.82 h -2.78 v -1 h 2.74 v -3.07 l 1.28,-0.15 v 3.17 z" />
  <path
     style="fill:#f9f9f9"
     id="path3796"
     d="m 190.79879,384.65644 54,-0.42 v 0.28 q -27,0.65 -54,0.45 z" />
  <path
     style="fill:#f9f9f9"
     id="path3798"
     d="m 84.668791,393.72644 h -1.33 v -15.75 h 1.33 z" />
  <path
     style="fill:#f9f9f9"
     id="path3800"
     d="m 182.59879,393.73644 h -1.2 v -15.77 h 1.2 z" />
  <path
     style="fill:#f9f9f9"
     id="path3802"
     d="m 24.488791,386.15644 c 17.35,-0.51 34.69,-0.61 52,-0.42 v 0.24 l -52,0.39 z" />
  <path
     style="fill:#999999"
     id="path3764-2"
     d="m 228.20899,134.08948 c 1.39,0.59 1.54,1 1.46,2.49 a 7,7 0 0 0 0.32,2.66 73.94,73.94 0 0 0 3.06,7.49 c 1.62,3.29 3.45,6.48 5.26,9.68 a 90.88,90.88 0 0 0 13,17.89 67.57,67.57 0 0 0 12.77,11 7.31,7.31 0 0 0 3.37,1.1 c 2.4,0.2 4.79,0.46 7.17,0.73 1.69,0.2 2.33,1 2.23,2.73 0,0.83 0,1.66 0,2.49 0.08,1.73 -0.8,2.51 -2.52,2.3 q -7.63,-1 -15.27,-1.87 c -5.28,-0.63 -10.55,-1.27 -15.83,-1.87 -4.48,-0.51 -9,-1 -13.54,-1.47 v 22.38 c -1.58,0 -3.08,0.07 -4.57,0 -0.91,-0.06 -1.5,-1 -1.51,-2.2 q 0,-6.8 0,-13.6 v -0.8 h -8.3 v 16.6 h -5.67 v -0.84 c 0,-7 0,-14 0,-21 a 1.11,1.11 0 0 0 -0.61,-1.08 c -1.9,-1.27 -3.75,-2.61 -5.61,-3.93 l -0.77,-0.55 c 0,0.42 -0.11,0.71 -0.12,1 0,1 0,2 0,3 a 1.73,1.73 0 1 1 -3.46,0 c 0,-2 0,-4 0,-6 a 2.24,2.24 0 0 0 -1.07,-2 c -0.9,-0.6 -1.77,-1.24 -2.76,-1.93 0,0.65 -0.1,1.2 -0.1,1.74 0,3.24 0,6.48 0,9.72 a 6.51,6.51 0 0 1 -0.08,1.17 1.8,1.8 0 0 1 -2.87,1.12 1.73,1.73 0 0 1 -0.61,-1.54 c 0,-4.19 0,-8.37 0,-12.56 0,-1.34 -0.19,-1.56 -1.52,-1.87 -0.56,-0.13 -1.11,-0.32 -1.67,-0.46 -0.56,-0.14 -0.86,0 -0.87,0.67 0,1.18 0,2.36 0,3.54 v 15.06 a 1.93,1.93 0 0 1 -1.82,1.75 2.13,2.13 0 0 1 -1.65,-1.86 q 0,-9.37 0,-18.74 c 0,-0.93 -0.14,-1 -1,-1 h -2 c -0.92,0 -1,0.1 -1,1.06 v 14.16 c 0,1.57 0,3.15 0,4.72 a 1.66,1.66 0 0 1 -2.43,1.63 1.35,1.35 0 0 1 -1,-1.19 c 0,-0.46 0,-0.92 0,-1.38 v -18 c 0,-0.11 0,-0.23 0,-0.5 -1.2,0.41 -2.37,0.75 -3.46,1.25 -0.27,0.13 -0.41,0.8 -0.41,1.22 0,3.93 0,7.86 0,11.8 q 0,0.45 0,0.9 a 1.71,1.71 0 0 1 -1.88,1.77 1.63,1.63 0 0 1 -1.7,-1.84 c 0,-3.61 0,-7.22 0,-10.83 a 11.8,11.8 0 0 0 -0.18,-1.27 c -1.26,1.06 -2.38,1.94 -3.41,2.92 a 2,2 0 0 0 -0.34,1.28 c 0,1.69 0,3.38 0,5.07 a 6.79,6.79 0 0 1 -0.05,0.9 1.67,1.67 0 0 1 -1.6,1.53 1.57,1.57 0 0 1 -1.76,-1.33 22.65,22.65 0 0 1 -0.13,-2.62 c 0,-0.45 -0.05,-0.9 -0.09,-1.56 a 35.49,35.49 0 0 1 -23.3,8.59 c -8.57,0.11 -16.45,-2 -23.29,-7.77 0,1 0,1.92 0,2.79 a 1.72,1.72 0 0 1 -2,1.77 1.68,1.68 0 0 1 -1.47,-1.74 c 0,-1.67 0,-3.33 0,-5 a 1.23,1.23 0 0 0 -0.53,-1.1 c -1.13,-0.88 -2.22,-1.8 -3.46,-2.82 v 0.91 c 0,3.4 0,6.8 0,10.2 a 1.58,1.58 0 0 1 -1.58,1.8 1.74,1.74 0 0 1 -2,-1.6 7.18,7.18 0 0 1 0,-1 v -11.84 c 0,-1.1 -0.08,-1.22 -1.14,-1.59 -0.89,-0.31 -1.79,-0.58 -2.77,-0.9 v 0.86 q 0,9.19 0,18.39 c 0,1.19 -0.390003,1.76 -1.340003,1.95 a 1.62,1.62 0 0 1 -2.14,-1.74 c 0,-2.41 0,-4.81 0,-7.22 v -11.64 c 0,-0.93 -0.11,-1 -1,-1 h -2.28 c -0.44,0 -0.71,0.17 -0.71,0.65 0,0.48 0,0.7 0,1 v 17 a 3.87,3.87 0 0 0 0,0.76 c 0.19,1 -0.39,1.59 -1.2,2 -0.81,0.41 -2.39,-0.41 -2.39,-1.41 v -18.44 c 0,-1.07 -0.16,-1.19 -1.18,-0.91 -0.51,0.14 -1,0.3 -1.53,0.41 -1.08,0.24 -1.36,0.56 -1.36,1.65 0,4.26 0,8.52 0,12.78 a 1.63,1.63 0 0 1 -1.89,1.83 1.55,1.55 0 0 1 -1.56,-1.32 5.72,5.72 0 0 1 -0.11,-1.24 c 0,-3.12 0,-6.25 0,-9.37 0,-0.67 -0.06,-1.34 -0.1,-2.2 -1.21,0.92 -2.36,1.68 -3.37,2.6 a 2.34,2.34 0 0 0 -0.44,1.53 c -0.05,2 0,3.93 0,5.9 a 1.72,1.72 0 0 1 -1.71,1.86 1.7,1.7 0 0 1 -1.76,-1.88 c 0,-1.06 0,-2.12 0,-3.18 a 7,7 0 0 0 -0.09,-0.72 5.38,5.38 0 0 0 -0.69,0.42 c -1,0.86 -2.09,1.74 -3.13,2.61 a 0.26,0.26 0 0 1 -0.11,0.07 c -1.35,0.26 -1.46,1.18 -1.45,2.36 0,7 0,14 0,21 v 0.86 h -5.9 v -16.62 H 54.30899 v 14.29 a 7.77,7.77 0 0 1 -0.07,1 1.38,1.38 0 0 1 -1.27,1.35 15.3,15.3 0 0 1 -3.1,0 1.69,1.69 0 0 1 -1.59,-1.79 c 0,-0.64 0,-1.29 0,-1.94 v -18.65 c -2,0.21 -4,0.39 -5.94,0.61 -4,0.43 -8,0.86 -12.06,1.33 -4.06,0.47 -7.88,1 -11.83,1.45 l -13.14,1.61 q -0.82,0.09 -1.65,0.21 a 2.17,2.17 0 0 1 -2.54,-1.18 v -5 a 2.74,2.74 0 0 1 2.19,-1.29 c 2.34,-0.23 4.68,-0.52 7,-0.75 a 7,7 0 0 0 3.5,-1.14 82.65,82.65 0 0 0 19.74,-19.48 128.32,128.32 0 0 0 14,-25.6 6.85,6.85 0 0 0 0.64,-3.63 2.15,2.15 0 0 1 1.42,-2.53 h 2.78 c 0.95,0.28 1.74,0.72 1.8,1.87 0,0.15 0,0.31 0.07,0.45 h 8.299997 v -2.19 h 5.68 c 0,0.25 0.07,0.47 0.08,0.7 q 0.17,6.69 0.32,13.37 c 0,1.16 -0.07,2.34 -0.08,3.49 -0.1,8.35 -0.05,16.71 -0.05,25.06 a 3.71,3.71 0 0 0 0.06,0.45 0.81,0.81 0 0 0 0.18,-0.08 l 0.74,-0.62 a 38.63,38.63 0 0 1 9.34,-6.3 37.25,37.25 0 0 1 24.920003,-2.07 c 4,1 7.77,2.42 10.78,5.39 0.79,0.78 1.63,1.51 2.45,2.25 0.17,0.16 0.36,0.31 0.66,0.56 v -0.91 c 0,-1.39 0,-2.78 0,-4.17 a 1.7906982,1.7906982 0 1 1 3.58,0.1 c 0,2.34 0,4.68 0.05,7 a 2.19,2.19 0 0 0 0.49,1.45 c 1,0.86 2.07,1.59 3.25,2.47 0,-0.66 0.09,-1.11 0.09,-1.57 q 0,-5.82 0,-11.66 a 1.8,1.8 0 0 1 1.85,-1.91 1.69,1.69 0 0 1 1.77,1.86 c 0,1.13 0,2.27 0,3.4 0,3.45 0,6.9 0,10.34 0,0.39 0.18,1 0.44,1.13 1.12,0.43 2.3,0.7 3.54,1.06 v -1 q 0,-9.59 0,-19.16 a 1.87,1.87 0 0 1 0.34,-1.2 2,2 0 0 1 2.22,-0.54 c 0.79,0.32 0.91,1 0.9,1.71 0,0.23 0,0.47 0,0.7 v 18.45 c 0,0.21 0,0.42 0,0.63 0,0.55 0.27,0.8 0.79,0.82 0.52,0.02 1.11,0 1.67,0 1.4,0 1.5,-0.13 1.45,-1.5 0,-0.17 0,-0.33 0,-0.49 v -17.9 c 0,-0.23 0,-0.46 0,-0.69 a 2.22,2.22 0 0 1 2.24,-1.88 c 1,0 1.46,0.7 1.47,2 v 19.77 c 1.06,-0.37 2,-0.75 3,-1 a 1.3,1.3 0 0 0 1,-1.47 c 0,-4.24 0,-8.47 0,-12.71 a 4.49,4.49 0 0 1 0.14,-1.16 1.7,1.7 0 0 1 3.21,0 4,4 0 0 1 0.13,1.09 c 0,3.43 0,6.85 0,10.27 0,0.52 0.08,1 0.14,1.65 a 4.13,4.13 0 0 0 0.52,-0.28 c 1,-0.82 2,-1.63 3,-2.49 a 1.24,1.24 0 0 0 0.36,-0.82 c 0,-2 0,-4.07 0,-6.1 a 4.57,4.57 0 0 1 0.06,-0.83 c 0.19,-0.93 0.75,-1.31 1.84,-1.25 a 1.41,1.41 0 0 1 1.54,1.44 c 0,0.93 0,1.85 0,2.78 0,0.4 0.07,0.79 0.11,1.28 l 0.81,-0.52 a 71.92,71.92 0 0 1 6.19,-3.81 36.88,36.88 0 0 1 27.31,-2.17 35.31,35.31 0 0 1 13.65,7.84 c 0.89,0.79 1.81,1.54 2.85,2.41 v -43 c 0,-1.16 0,-1.15 1.07,-1.61 a 0.88,0.88 0 0 0 0.15,-0.12 h 4.45 v 2.27 h 8.37 a 2.18,2.18 0 0 1 1.76,-2.33 z m 1.68,13.75 h -0.18 v 0.74 c 0,4.38 0.08,8.75 0,13.12 a 6.93,6.93 0 0 0 1.49,4.54 81,81 0 0 0 17.49,18.16 2.66,2.66 0 0 0 1.17,0.47 c 1.36,0.16 2.72,0.3 4.08,0.36 1.36,0.06 3,0 4.41,0 l -0.31,-0.27 c -2.43,-2.13 -4.95,-4.17 -7.27,-6.42 a 92.56,92.56 0 0 1 -17.57,-24.28 q -1.68,-3.18 -3.31,-6.42 z m -210.58,37.59 c 0.39,0 0.57,0 0.74,0 2,-0.15 4,-0.34 6.08,-0.46 a 7.66,7.66 0 0 0 4.48,-1.62 81.35,81.35 0 0 0 17,-18.29 3.31,3.31 0 0 0 0.54,-1.75 c 0,-4.88 0,-9.76 0,-14.64 v -0.64 l -0.17,-0.05 c -6.88,14.44 -15.59,27.51 -28.67,37.45 z m 196,-2.74 8.26,0.35 v -16.21 h -8.26 z m -161,-15.86 v 16.23 c 2.239997,-0.09 4.389997,-0.14 6.529997,-0.28 a 1.77,1.77 0 0 0 1.74,-2 v -14 z m 175.45,16.53 13.2,1.06 0.06,-0.17 a 84.36,84.36 0 0 1 -13.26,-13.63 z m -194.61,0.86 13,-0.87 v -12.66 a 96.75,96.75 0 0 1 -13,13.53 z m 180.76,-37.45 -0.22,-0.07 a 4,4 0 0 0 -0.35,1.06 c 0,4 0,8 0,12 a 5.72,5.72 0 0 0 0,0.59 h 7.75 z m -161,13.62 h 7.609997 c 0,-0.65 0,-1.25 0,-1.85 q 0,-4.9 0.1,-9.83 a 2.41,2.41 0 0 0 -0.65,-2 c -2.32,4.56 -4.66,9.08 -7.029997,13.68 z m 168.54,-6.61 h 0.11 v -12.44 l -4.69,3.27 z m -169.14,-0.06 0.24,0.09 4.469997,-9.22 -4.709997,-3.28 z" />
  <path
     style="fill:#999999"
     id="path3766-7"
     d="m 101.01899,225.50948 c 2.77,1.7 3.55,4.26 3.2,7.2 -0.46,3.9 -2.72,5.93 -6.710003,6.25 -0.25,0 -0.51,0 -0.76,0 h -10.58 v -26 h 10.36 c 5.170003,0 8.400003,4.32 7.000003,9.31 a 5.22,5.22 0 0 1 -2.51,3.24 z m -10.870003,8.89 c 2.28,0 4.48,0 6.67,0 a 4.49,4.49 0 0 0 1.6,-0.4 2.89,2.89 0 0 0 1.37,-4.32 4.17,4.17 0 0 0 -3.64,-1.92 c -1.85,0 -3.7,0 -5.55,0 a 3.26,3.26 0 0 0 -0.45,0.05 z m 0,-11 h 6.37 a 5.78,5.78 0 0 0 1.17,-0.16 2.56,2.56 0 0 0 2,-3.16 3.16,3.16 0 0 0 -3.33,-2.63 c -1.82,0 -3.65,0 -5.47,0 h -0.7 z" />
  <path
     style="fill:#999999"
     id="path3768-3"
     d="m 144.72899,234.41948 h 13.29 v 4.53 h -17.37 v -6.73 c 0,-4.42 2.54,-7.22 6.93,-7.65 1.13,-0.11 2.27,-0.11 3.38,-0.27 a 3.12,3.12 0 0 0 3,-2.58 3.78,3.78 0 0 0 -1.86,-4 5.62,5.62 0 0 0 -5.38,-0.1 c -1.19,0.61 -1.65,1.34 -2,3 h -4 a 7.22,7.22 0 0 1 2.36,-5.71 9,9 0 0 1 7.32,-2 8.53,8.53 0 0 1 5.66,2.62 c 1.82,2 2.07,4.46 1.84,7 a 8.31,8.31 0 0 1 -0.27,1.49 c -0.75,2.8 -2.76,4.43 -5.89,4.76 -1.24,0.13 -2.49,0.14 -3.72,0.29 a 5.76,5.76 0 0 0 -1.71,0.53 2.59,2.59 0 0 0 -1.59,2.2 c -0.05,0.79 0.01,1.67 0.01,2.62 z" />
  <path
     style="fill:#999999"
     id="path3770-1"
     d="m 185.21899,234.41948 h 13.31 v 4.54 h -17.33 c 0,-0.24 0,-0.46 0,-0.69 v -6.11 c 0,-4.36 2.53,-7.17 6.89,-7.61 1.17,-0.12 2.36,-0.11 3.52,-0.29 a 3,3 0 0 0 2.81,-2.39 3.6,3.6 0 0 0 -1.43,-3.93 5.48,5.48 0 0 0 -5.85,-0.31 3.31,3.31 0 0 0 -1.83,2.9 h -4 a 7.24,7.24 0 0 1 3.29,-6.38 10.26,10.26 0 0 1 11.5,0.73 6.74,6.74 0 0 1 2.4,4.91 15.08,15.08 0 0 1 -0.3,4.19 c -0.65,2.81 -2.74,4.41 -5.88,4.73 -1.22,0.13 -2.45,0.13 -3.66,0.28 a 6,6 0 0 0 -1.83,0.59 2.67,2.67 0 0 0 -1.54,2.31 c -0.11,0.81 -0.07,1.62 -0.07,2.53 z" />
  <path
     style="fill:#999999"
     id="path3772-2"
     d="m 179.35899,226.01948 a 19.39,19.39 0 0 1 -0.56,6.26 c -1.08,3.5 -3.16,6.07 -6.84,7 -4.25,1 -8.38,-1.22 -10.22,-5.46 a 13.38,13.38 0 0 1 -1.1,-5.32 c 0,-2.2 0,-4.4 0.15,-6.58 a 10.53,10.53 0 0 1 3.21,-6.9 8.72,8.72 0 0 1 13.85,2.47 13.52,13.52 0 0 1 1.51,6.06 c 0.02,0.81 0,1.67 0,2.47 z m -3.91,0 h -0.14 c 0,-0.62 0,-1.25 0,-1.87 a 8.72,8.72 0 0 0 -1.09,-4.39 4.73,4.73 0 0 0 -7.87,-0.86 7.5,7.5 0 0 0 -1.41,2.89 22.55,22.55 0 0 0 -0.2,7.24 8.66,8.66 0 0 0 0.91,3.1 4.71,4.71 0 0 0 7.53,1.45 5.65,5.65 0 0 0 1.83,-3.35 c 0.3,-1.35 0.3,-2.76 0.44,-4.16 z" />
  <path
     style="fill:#999999"
     id="path3774-2"
     d="m 219.87899,226.07948 a 19.29,19.29 0 0 1 -0.56,6.19 c -1.08,3.49 -3.15,6.07 -6.83,7 a 8.69,8.69 0 0 1 -10.18,-5.48 14.9,14.9 0 0 1 -1.08,-4.55 55.54,55.54 0 0 1 0.1,-7.41 10.31,10.31 0 0 1 3.19,-6.82 8.72,8.72 0 0 1 13.86,2.44 13.62,13.62 0 0 1 1.51,6.06 c 0.01,0.85 -0.01,1.71 -0.01,2.57 z m -3.91,0 h -0.11 c 0,-0.62 0,-1.25 0,-1.87 a 8.72,8.72 0 0 0 -1.09,-4.39 c -1.8,-3.05 -5.68,-3.51 -7.87,-0.86 a 7.36,7.36 0 0 0 -1.41,2.89 22.69,22.69 0 0 0 -0.19,7.31 8.55,8.55 0 0 0 0.9,3 4.71,4.71 0 0 0 7.53,1.45 5.65,5.65 0 0 0 1.83,-3.35 c 0.23,-1.38 0.28,-2.79 0.41,-4.19 z" />
  <path
     style="fill:#999999"
     id="path3776-3"
     d="m 74.568987,213.21948 v 25.74 h -4 v -10.33 h -10.49 v 10.31 h -4 v -25.72 h 4 v 10.79 h 10.47 v -10.79 z" />
  <path
     style="fill:#999999"
     id="path3778-5"
     d="m 121.63899,217.46948 h -6.77 v -4.4 h 17.55 v 4.37 h -6.72 v 21.5 h -4.06 z" />
  <path
     style="fill:#999999"
     id="path3780-6"
     d="m 78.528987,213.05948 h 3.94 v 25.87 h -3.94 z" />
  <path
     style="fill:#999999"
     id="path3782-0"
     d="m 111.17899,238.94948 h -3.94 v -25.87 h 3.94 z" />
  <path
     style="fill:#999999"
     id="path3784-5"
     d="m 149.78899,254.21948 c 2.31,-2.54 5.09,-2.83 8.07,-2 a 5.35,5.35 0 0 1 4.16,5.71 5.41,5.41 0 0 1 -4.29,5.13 c -2.95,0.78 -5.34,0.17 -7.89,-2.05 v 2.14 h -1.31 v -15.8 h 1.26 z m 5.52,8.15 a 20.23,20.23 0 0 0 2.85,-0.77 4.06,4.06 0 0 0 2.56,-4 4.12,4.12 0 0 0 -2.45,-4 6.58,6.58 0 0 0 -5.82,0 4.39,4.39 0 0 0 0.15,8.1 20.57,20.57 0 0 0 2.71,0.64 z" />
  <path
     style="fill:#999999"
     id="path3786-4"
     d="m 126.76899,254.15948 v -2.21 h 1.28 v 11.16 h -1.27 v -2.28 a 6.6,6.6 0 0 1 -4.27,2.39 8,8 0 0 1 -4.59,-0.67 5.41,5.41 0 0 1 0.71,-10.2 7.48,7.48 0 0 1 8.14,1.81 z m -5.28,-1.31 a 7.78,7.78 0 0 0 -3.47,1.06 4.29,4.29 0 0 0 0.07,7.38 6.34,6.34 0 0 0 6.36,0.18 4.33,4.33 0 0 0 -0.25,-7.88 18.65,18.65 0 0 0 -2.71,-0.74 z" />
  <path
     style="fill:#999999"
     id="path3788-7"
     d="m 133.69899,253.82948 c 2.28,-2.69 6.72,-2.4 8.81,-1 a 4.33,4.33 0 0 1 1.88,2.88 6,6 0 0 1 0.07,1 c 0,2.1 0,4.2 0,6.34 h -1.32 v -6.07 c 0,-2.37 -1.15,-3.74 -3.51,-4 a 8.07,8.07 0 0 0 -2.94,0.16 3.85,3.85 0 0 0 -3,4 c 0,1.92 0,3.84 0,5.76 a 0.51,0.51 0 0 1 0,0.17 h -1.22 v -11.12 h 1.27 z" />
  <path
     style="fill:#999999"
     id="path3790-1"
     d="m 177.78899,263.10948 h -1.28 v -1.73 c -2.49,2.28 -5.21,2.41 -8,1.2 a 4.18,4.18 0 0 1 -2.62,-4.13 c 0,-2 0,-3.93 0,-5.9 0,-0.2 0,-0.4 0,-0.62 h 1.28 v 6 c 0,2.45 1.07,3.72 3.5,4.13 a 5.47,5.47 0 0 0 4.18,-0.78 4,4 0 0 0 1.69,-3.53 c 0,-1.69 0,-3.38 0,-5.06 v -0.79 h 1.27 z" />
  <path
     style="fill:#999999"
     id="path3792-1"
     d="m 89.308987,261.09948 1,-0.76 a 7.36,7.36 0 0 0 7.16,1.56 3.46,3.46 0 0 0 0.89,-0.36 1.62,1.62 0 0 0 0.93,-1.58 1.42,1.42 0 0 0 -1.09,-1.3 c -0.88,-0.27 -1.78,-0.46 -2.68,-0.65 -0.9,-0.19 -2.09,-0.36 -3.13,-0.56 a 4.41,4.41 0 0 1 -1,-0.35 2.3,2.3 0 0 1 -1.53,-2 2.26,2.26 0 0 1 1.31,-2.4 11.32,11.32 0 0 1 3,-0.85 8.27,8.27 0 0 1 4.55,0.6 c 0.45,0.2 0.88,0.48 1.320003,0.73 -0.620003,0.88 -0.600003,0.85 -1.410003,0.44 a 7.78,7.78 0 0 0 -6.18,-0.32 1.92,1.92 0 0 0 -0.25,0.12 1.56,1.56 0 0 0 -1,1.44 1.41,1.41 0 0 0 1.01,1.36 c 0.92,0.28 1.87,0.48 2.81,0.68 0.94,0.2 2.05,0.36 3.06,0.57 a 4.46,4.46 0 0 1 1.1,0.42 2.43,2.43 0 0 1 0.31,4.29 7.62,7.62 0 0 1 -2.89,1 8.67,8.67 0 0 1 -6,-1.05 14.76,14.76 0 0 1 -1.29,-1.03 z" />
  <path
     style="fill:#999999"
     id="path3794-0"
     d="m 111.62899,251.84948 v 1 h -4.4 c -0.07,0.12 -0.12,0.18 -0.12,0.24 0,2.31 0,4.63 0,6.94 0.06,1.71 0.82,2.33 2.54,2.23 a 18.6,18.6 0 0 0 2,-0.34 l 0.4,0.74 a 5.11,5.11 0 0 1 -5.13,0 3.07,3.07 0 0 1 -1.09,-2.58 c 0,-2.11 0,-4.21 0,-6.31 v -0.82 h -2.78 v -1 h 2.74 v -3.07 l 1.28,-0.15 v 3.17 z" />
  <path
     style="fill:#999999"
     id="path3796-2"
     d="m 191.50899,254.03948 54,-0.42 v 0.28 q -27,0.65 -54,0.45 z" />
  <path
     style="fill:#999999"
     id="path3798-0"
     d="m 85.378987,263.10948 h -1.33 v -15.75 h 1.33 z" />
  <path
     style="fill:#999999"
     id="path3800-8"
     d="m 183.30899,263.11948 h -1.2 v -15.77 h 1.2 z" />
  <path
     style="fill:#999999"
     id="path3802-1"
     d="m 25.19899,255.53948 c 17.35,-0.51 34.689997,-0.61 51.999997,-0.42 v 0.24 l -51.999997,0.39 z" />
  <path
     style="fill:#808080"
     id="path3764-3"
     d="m 227.3914,0.09387503 c 1.39,0.59 1.54,0.99999997 1.46,2.48999997 a 7,7 0 0 0 0.32,2.66 73.94,73.94 0 0 0 3.06,7.49 c 1.62,3.29 3.45,6.48 5.26,9.68 a 90.88,90.88 0 0 0 13,17.89 67.57,67.57 0 0 0 12.77,11 7.31,7.31 0 0 0 3.37,1.1 c 2.4,0.2 4.79,0.46 7.17,0.73 1.69,0.2 2.33,1 2.23,2.73 0,0.83 0,1.66 0,2.49 0.08,1.73 -0.8,2.51 -2.52,2.3 q -7.63,-1 -15.27,-1.87 c -5.28,-0.63 -10.55,-1.27 -15.83,-1.87 -4.48,-0.51 -9,-1 -13.54,-1.47 v 22.38 c -1.58,0 -3.08,0.07 -4.57,0 -0.91,-0.06 -1.5,-1 -1.51,-2.2 q 0,-6.8 0,-13.6 v -0.8 h -8.3 v 16.6 h -5.67 v -0.84 c 0,-7 0,-14 0,-21 a 1.11,1.11 0 0 0 -0.61,-1.08 c -1.9,-1.27 -3.75,-2.61 -5.61,-3.93 l -0.77,-0.55 c 0,0.42 -0.11,0.71 -0.12,1 0,1 0,2 0,3 a 1.73,1.73 0 1 1 -3.46,0 c 0,-2 0,-4 0,-6 a 2.24,2.24 0 0 0 -1.07,-2 c -0.9,-0.6 -1.77,-1.24 -2.76,-1.93 0,0.65 -0.1,1.2 -0.1,1.74 0,3.24 0,6.48 0,9.72 a 6.51,6.51 0 0 1 -0.08,1.17 1.8,1.8 0 0 1 -2.87,1.12 1.73,1.73 0 0 1 -0.61,-1.54 c 0,-4.19 0,-8.37 0,-12.56 0,-1.34 -0.19,-1.56 -1.52,-1.87 -0.56,-0.13 -1.11,-0.32 -1.67,-0.46 -0.56,-0.14 -0.86,0 -0.87,0.67 0,1.18 0,2.36 0,3.54 v 15.06 a 1.93,1.93 0 0 1 -1.82,1.75 2.13,2.13 0 0 1 -1.65,-1.86 q 0,-9.37 0,-18.74 c 0,-0.93 -0.14,-1 -1,-1 h -2 c -0.92,0 -1,0.1 -1,1.06 v 14.16 c 0,1.57 0,3.15 0,4.72 a 1.66,1.66 0 0 1 -2.43,1.63 1.35,1.35 0 0 1 -1,-1.19 c 0,-0.46 0,-0.92 0,-1.38 v -18 c 0,-0.11 0,-0.23 0,-0.5 -1.2,0.41 -2.37,0.75 -3.46,1.25 -0.27,0.13 -0.41,0.8 -0.41,1.22 0,3.93 0,7.86 0,11.8 q 0,0.45 0,0.9 a 1.71,1.71 0 0 1 -1.88,1.77 1.63,1.63 0 0 1 -1.7,-1.84 c 0,-3.61 0,-7.22 0,-10.83 a 11.8,11.8 0 0 0 -0.18,-1.27 c -1.26,1.06 -2.38,1.94 -3.41,2.92 a 2,2 0 0 0 -0.34,1.28 c 0,1.69 0,3.38 0,5.07 a 6.79,6.79 0 0 1 -0.05,0.9 1.67,1.67 0 0 1 -1.6,1.53 1.57,1.57 0 0 1 -1.76,-1.33 22.65,22.65 0 0 1 -0.13,-2.62 c 0,-0.45 -0.05,-0.9 -0.09,-1.56 a 35.49,35.49 0 0 1 -23.3,8.59 c -8.57,0.11 -16.45,-2 -23.29,-7.77 0,1 0,1.92 0,2.79 a 1.72,1.72 0 0 1 -2,1.77 1.68,1.68 0 0 1 -1.47,-1.74 c 0,-1.67 0,-3.33 0,-5 a 1.23,1.23 0 0 0 -0.53,-1.1 c -1.13,-0.88 -2.22,-1.8 -3.46,-2.82 v 0.91 c 0,3.4 0,6.8 0,10.2 a 1.58,1.58 0 0 1 -1.58,1.8 1.74,1.74 0 0 1 -2,-1.6 7.18,7.18 0 0 1 0,-1 v -11.84 c 0,-1.1 -0.08,-1.22 -1.14,-1.59 -0.89,-0.31 -1.79,-0.58 -2.769996,-0.9 v 0.86 q 0,9.19 0,18.39 c 0,1.19 -0.39,1.76 -1.34,1.95 a 1.62,1.62 0 0 1 -2.14,-1.74 c 0,-2.41 0,-4.81 0,-7.22 v -11.64 c 0,-0.93 -0.11,-1 -1,-1 h -2.28 c -0.44,0 -0.71,0.17 -0.71,0.65 0,0.48 0,0.7 0,1 v 17 a 3.87,3.87 0 0 0 0,0.76 c 0.19,1 -0.39,1.59 -1.2,2 -0.81,0.41 -2.39,-0.41 -2.39,-1.41 v -18.44 c 0,-1.07 -0.16,-1.19 -1.18,-0.91 -0.51,0.14 -1,0.3 -1.53,0.41 -1.08,0.24 -1.36,0.56 -1.36,1.65 0,4.26 0,8.52 0,12.78 a 1.63,1.63 0 0 1 -1.89,1.83 1.55,1.55 0 0 1 -1.56,-1.32 5.72,5.72 0 0 1 -0.11,-1.24 c 0,-3.12 0,-6.25 0,-9.37 0,-0.67 -0.06,-1.34 -0.1,-2.2 -1.21,0.92 -2.36,1.68 -3.37,2.6 a 2.34,2.34 0 0 0 -0.44,1.53 c -0.05,2 0,3.93 0,5.9 a 1.72,1.72 0 0 1 -1.71,1.86 1.7,1.7 0 0 1 -1.76,-1.88 c 0,-1.06 0,-2.12 0,-3.18 a 7,7 0 0 0 -0.09,-0.72 5.38,5.38 0 0 0 -0.69,0.42 c -1,0.86 -2.09,1.74 -3.13,2.61 a 0.26,0.26 0 0 1 -0.11,0.07 c -1.35,0.26 -1.46,1.18 -1.45,2.36 0,7 0,14 0,21 v 0.86 h -5.9 v -16.62 h -8.32 v 14.29 a 7.77,7.77 0 0 1 -0.07,1 1.38,1.38 0 0 1 -1.27,1.35 15.3,15.3 0 0 1 -3.1,0 1.69,1.69 0 0 1 -1.59,-1.79 c 0,-0.64 0,-1.29 0,-1.94 v -18.65 c -2,0.21 -4,0.39 -5.94,0.61 -4,0.43 -7.999996,0.86 -12.059996,1.33 -4.06,0.47 -7.88,1 -11.83,1.45 l -13.1399998,1.61 q -0.82,0.09 -1.65,0.21 a 2.17,2.17 0 0 1 -2.54000002,-1.18 v -5 a 2.74,2.74 0 0 1 2.19000002,-1.29 c 2.34,-0.23 4.68,-0.52 7,-0.75 a 7,7 0 0 0 3.4999998,-1.14 82.65,82.65 0 0 0 19.74,-19.48 128.32,128.32 0 0 0 13.999996,-25.6 6.85,6.85 0 0 0 0.64,-3.63 2.15,2.15 0 0 1 1.42,-2.52999997 h 2.78 c 0.95,0.28 1.74,0.72 1.8,1.86999997 0,0.15 0,0.31 0.07,0.45 h 8.3 V 0.22387503 h 5.68 c 0,0.25 0.07,0.47 0.08,0.7 q 0.17,6.68999997 0.32,13.36999997 c 0,1.16 -0.07,2.34 -0.08,3.49 -0.1,8.35 -0.05,16.71 -0.05,25.06 a 3.71,3.71 0 0 0 0.06,0.45 0.81,0.81 0 0 0 0.18,-0.08 l 0.74,-0.62 a 38.63,38.63 0 0 1 9.34,-6.3 37.25,37.25 0 0 1 24.919996,-2.07 c 4,1 7.77,2.42 10.78,5.39 0.79,0.78 1.63,1.51 2.45,2.25 0.17,0.16 0.36,0.31 0.66,0.56 v -0.91 c 0,-1.39 0,-2.78 0,-4.17 a 1.7906982,1.7906982 0 1 1 3.58,0.1 c 0,2.34 0,4.68 0.05,7 a 2.19,2.19 0 0 0 0.49,1.45 c 1,0.86 2.07,1.59 3.25,2.47 0,-0.66 0.09,-1.11 0.09,-1.57 q 0,-5.82 0,-11.66 a 1.8,1.8 0 0 1 1.85,-1.91 1.69,1.69 0 0 1 1.77,1.86 c 0,1.13 0,2.27 0,3.4 0,3.45 0,6.9 0,10.34 0,0.39 0.18,1 0.44,1.13 1.12,0.43 2.3,0.7 3.54,1.06 v -1 q 0,-9.59 0,-19.16 a 1.87,1.87 0 0 1 0.34,-1.2 2,2 0 0 1 2.22,-0.54 c 0.79,0.32 0.91,1 0.9,1.71 0,0.23 0,0.47 0,0.7 v 18.45 c 0,0.21 0,0.42 0,0.63 0,0.55 0.27,0.8 0.79,0.82 0.52,0.02 1.11,0 1.67,0 1.4,0 1.5,-0.13 1.45,-1.5 0,-0.17 0,-0.33 0,-0.49 v -17.9 c 0,-0.23 0,-0.46 0,-0.69 a 2.22,2.22 0 0 1 2.24,-1.88 c 1,0 1.46,0.7 1.47,2 v 19.77 c 1.06,-0.37 2,-0.75 3,-1 a 1.3,1.3 0 0 0 1,-1.47 c 0,-4.24 0,-8.47 0,-12.71 a 4.49,4.49 0 0 1 0.14,-1.16 1.7,1.7 0 0 1 3.21,0 4,4 0 0 1 0.13,1.09 c 0,3.43 0,6.85 0,10.27 0,0.52 0.08,1 0.14,1.65 a 4.13,4.13 0 0 0 0.52,-0.28 c 1,-0.82 2,-1.63 3,-2.49 a 1.24,1.24 0 0 0 0.36,-0.82 c 0,-2 0,-4.07 0,-6.1 a 4.57,4.57 0 0 1 0.06,-0.83 c 0.19,-0.93 0.75,-1.31 1.84,-1.25 a 1.41,1.41 0 0 1 1.54,1.44 c 0,0.93 0,1.85 0,2.78 0,0.4 0.07,0.79 0.11,1.28 l 0.81,-0.52 a 71.92,71.92 0 0 1 6.19,-3.81 36.88,36.88 0 0 1 27.31,-2.17 35.31,35.31 0 0 1 13.65,7.84 c 0.89,0.79 1.81,1.54 2.85,2.41 v -43 c 0,-1.15999997 0,-1.14999997 1.07,-1.60999997 a 0.88,0.88 0 0 0 0.15,-0.12 h 4.45 V 2.423875 h 8.37 a 2.18,2.18 0 0 1 1.76,-2.32999997 z m 1.68,13.74999997 h -0.18 v 0.74 c 0,4.38 0.08,8.75 0,13.12 a 6.93,6.93 0 0 0 1.49,4.54 81,81 0 0 0 17.49,18.16 2.66,2.66 0 0 0 1.17,0.47 c 1.36,0.16 2.72,0.3 4.08,0.36 1.36,0.06 3,0 4.41,0 l -0.31,-0.27 c -2.43,-2.13 -4.95,-4.17 -7.27,-6.42 a 92.56,92.56 0 0 1 -17.57,-24.28 q -1.68,-3.18 -3.31,-6.42 z m -210.579992,37.59 c 0.39,0 0.57,0 0.74,0 2,-0.15 4,-0.34 6.08,-0.46 a 7.66,7.66 0 0 0 4.48,-1.62 81.35,81.35 0 0 0 16.999996,-18.29 3.31,3.31 0 0 0 0.54,-1.75 c 0,-4.88 0,-9.76 0,-14.64 v -0.64 l -0.17,-0.05 c -6.88,14.44 -15.589996,27.51 -28.669996,37.45 z m 195.999992,-2.74 8.26,0.35 v -16.21 h -8.26 z m -160.999996,-15.86 v 16.23 c 2.24,-0.09 4.39,-0.14 6.53,-0.28 a 1.77,1.77 0 0 0 1.74,-2 v -14 z m 175.449996,16.53 13.2,1.06 0.06,-0.17 a 84.36,84.36 0 0 1 -13.26,-13.63 z m -194.609996,0.86 13,-0.87 v -12.66 a 96.75,96.75 0 0 1 -13,13.53 z m 180.759996,-37.45 -0.22,-0.07 a 4,4 0 0 0 -0.35,1.06 c 0,4 0,8 0,12 a 5.72,5.72 0 0 0 0,0.59 h 7.75 z m -160.999996,13.62 h 7.61 c 0,-0.65 0,-1.25 0,-1.85 q 0,-4.9 0.1,-9.83 a 2.41,2.41 0 0 0 -0.65,-2 c -2.32,4.56 -4.66,9.08 -7.03,13.68 z m 168.539996,-6.61 h 0.11 v -12.44 l -4.69,3.27 z m -169.139996,-0.06 0.24,0.09 4.47,-9.22 -4.71,-3.28 z" />
  <path
     style="fill:#808080"
     id="path3766-1"
     d="m 100.2014,91.513874 c 2.77,1.7 3.55,4.26 3.2,7.199996 -0.46,3.9 -2.72,5.93 -6.709996,6.25 -0.25,0 -0.51,0 -0.76,0 h -10.58 V 78.963875 h 10.36 c 5.169996,0 8.399996,4.319999 6.999996,9.309999 a 5.22,5.22 0 0 1 -2.51,3.24 z m -10.869996,8.889996 c 2.28,0 4.48,0 6.67,0 a 4.49,4.49 0 0 0 1.6,-0.4 2.89,2.89 0 0 0 1.37,-4.319996 4.17,4.17 0 0 0 -3.64,-1.92 c -1.85,0 -3.7,0 -5.55,0 a 3.26,3.26 0 0 0 -0.45,0.05 z m 0,-10.999996 h 6.37 a 5.78,5.78 0 0 0 1.17,-0.16 2.56,2.56 0 0 0 2,-3.16 3.16,3.16 0 0 0 -3.33,-2.63 c -1.82,0 -3.65,0 -5.47,0 h -0.7 z" />
  <path
     style="fill:#808080"
     id="path3768-5"
     d="m 143.9114,100.42387 h 13.29 v 4.53 h -17.37 v -6.73 c 0,-4.419996 2.54,-7.219996 6.93,-7.649996 1.13,-0.11 2.27,-0.11 3.38,-0.27 a 3.12,3.12 0 0 0 3,-2.58 3.78,3.78 0 0 0 -1.86,-4 5.62,5.62 0 0 0 -5.38,-0.1 c -1.19,0.61 -1.65,1.34 -2,3 h -4 a 7.22,7.22 0 0 1 2.36,-5.71 9,9 0 0 1 7.32,-1.999999 8.53,8.53 0 0 1 5.66,2.619999 c 1.82,2 2.07,4.46 1.84,7 a 8.31,8.31 0 0 1 -0.27,1.49 c -0.75,2.8 -2.76,4.43 -5.89,4.76 -1.24,0.13 -2.49,0.14 -3.72,0.29 a 5.76,5.76 0 0 0 -1.71,0.53 2.59,2.59 0 0 0 -1.59,2.199996 c -0.05,0.79 0.01,1.67 0.01,2.62 z" />
  <path
     style="fill:#808080"
     id="path3770-8"
     d="m 184.4014,100.42387 h 13.31 v 4.54 h -17.33 c 0,-0.24 0,-0.46 0,-0.69 v -6.11 c 0,-4.359996 2.53,-7.169996 6.89,-7.609996 1.17,-0.12 2.36,-0.11 3.52,-0.29 a 3,3 0 0 0 2.81,-2.39 3.6,3.6 0 0 0 -1.43,-3.93 5.48,5.48 0 0 0 -5.85,-0.31 3.31,3.31 0 0 0 -1.83,2.9 h -4 a 7.24,7.24 0 0 1 3.29,-6.379999 10.26,10.26 0 0 1 11.5,0.729999 6.74,6.74 0 0 1 2.4,4.91 15.08,15.08 0 0 1 -0.3,4.19 c -0.65,2.81 -2.74,4.41 -5.88,4.73 -1.22,0.13 -2.45,0.13 -3.66,0.28 a 6,6 0 0 0 -1.83,0.59 2.67,2.67 0 0 0 -1.54,2.309996 c -0.11,0.81 -0.07,1.62 -0.07,2.53 z" />
  <path
     style="fill:#808080"
     id="path3772-7"
     d="m 178.5414,92.023874 a 19.39,19.39 0 0 1 -0.56,6.259996 c -1.08,3.5 -3.16,6.07 -6.84,7 -4.25,1 -8.38,-1.22 -10.22,-5.46 a 13.38,13.38 0 0 1 -1.1,-5.319996 c 0,-2.2 0,-4.4 0.15,-6.58 a 10.53,10.53 0 0 1 3.21,-6.9 8.72,8.72 0 0 1 13.85,2.47 13.52,13.52 0 0 1 1.51,6.06 c 0.02,0.81 0,1.67 0,2.47 z m -3.91,0 h -0.14 c 0,-0.62 0,-1.25 0,-1.87 a 8.72,8.72 0 0 0 -1.09,-4.39 4.73,4.73 0 0 0 -7.87,-0.86 7.5,7.5 0 0 0 -1.41,2.89 22.55,22.55 0 0 0 -0.2,7.24 8.66,8.66 0 0 0 0.91,3.099996 4.71,4.71 0 0 0 7.53,1.45 5.65,5.65 0 0 0 1.83,-3.35 c 0.3,-1.349996 0.3,-2.759996 0.44,-4.159996 z" />
  <path
     style="fill:#808080"
     id="path3774-4"
     d="m 219.0614,92.083874 a 19.29,19.29 0 0 1 -0.56,6.189996 c -1.08,3.49 -3.15,6.07 -6.83,7 a 8.69,8.69 0 0 1 -10.18,-5.48 14.9,14.9 0 0 1 -1.08,-4.549996 55.54,55.54 0 0 1 0.1,-7.41 10.31,10.31 0 0 1 3.19,-6.82 8.72,8.72 0 0 1 13.86,2.44 13.62,13.62 0 0 1 1.51,6.06 c 0.01,0.85 -0.01,1.71 -0.01,2.57 z m -3.91,0 h -0.11 c 0,-0.62 0,-1.25 0,-1.87 a 8.72,8.72 0 0 0 -1.09,-4.39 c -1.8,-3.05 -5.68,-3.51 -7.87,-0.86 a 7.36,7.36 0 0 0 -1.41,2.89 22.69,22.69 0 0 0 -0.19,7.31 8.55,8.55 0 0 0 0.9,2.999996 4.71,4.71 0 0 0 7.53,1.45 5.65,5.65 0 0 0 1.83,-3.35 c 0.23,-1.379996 0.28,-2.789996 0.41,-4.189996 z" />
  <path
     style="fill:#808080"
     id="path3776-35"
     d="m 73.751404,79.223875 v 25.739995 h -4 V 94.633874 h -10.49 v 10.309996 h -4 V 79.223875 h 4 v 10.789999 h 10.47 V 79.223875 Z" />
  <path
     style="fill:#808080"
     id="path3778-2"
     d="m 120.8214,83.473874 h -6.77 v -4.399999 h 17.55 v 4.369999 h -6.72 v 21.499996 h -4.06 z" />
  <path
     style="fill:#808080"
     id="path3780-61"
     d="m 77.711404,79.063875 h 3.94 v 25.869995 h -3.94 z" />
  <path
     style="fill:#808080"
     id="path3782-6"
     d="m 110.3614,104.95387 h -3.94 V 79.083875 h 3.94 z" />
  <path
     style="fill:#808080"
     id="path3784-4"
     d="m 148.9714,120.22387 c 2.31,-2.54 5.09,-2.83 8.07,-2 a 5.35,5.35 0 0 1 4.16,5.71 5.41,5.41 0 0 1 -4.29,5.13 c -2.95,0.78 -5.34,0.17 -7.89,-2.05 v 2.14 h -1.31 v -15.8 h 1.26 z m 5.52,8.15 a 20.23,20.23 0 0 0 2.85,-0.77 4.06,4.06 0 0 0 2.56,-4 4.12,4.12 0 0 0 -2.45,-4 6.58,6.58 0 0 0 -5.82,0 4.39,4.39 0 0 0 0.15,8.1 20.57,20.57 0 0 0 2.71,0.64 z" />
  <path
     style="fill:#808080"
     id="path3786-3"
     d="m 125.9514,120.16387 v -2.21 h 1.28 v 11.16 h -1.27 v -2.28 a 6.6,6.6 0 0 1 -4.27,2.39 8,8 0 0 1 -4.59,-0.67 5.41,5.41 0 0 1 0.71,-10.2 7.48,7.48 0 0 1 8.14,1.81 z m -5.28,-1.31 a 7.78,7.78 0 0 0 -3.47,1.06 4.29,4.29 0 0 0 0.07,7.38 6.34,6.34 0 0 0 6.36,0.18 4.33,4.33 0 0 0 -0.25,-7.88 18.65,18.65 0 0 0 -2.71,-0.74 z" />
  <path
     style="fill:#808080"
     id="path3788-3"
     d="m 132.8814,119.83387 c 2.28,-2.69 6.72,-2.4 8.81,-1 a 4.33,4.33 0 0 1 1.88,2.88 6,6 0 0 1 0.07,1 c 0,2.1 0,4.2 0,6.34 h -1.32 v -6.07 c 0,-2.37 -1.15,-3.74 -3.51,-4 a 8.07,8.07 0 0 0 -2.94,0.16 3.85,3.85 0 0 0 -3,4 c 0,1.92 0,3.84 0,5.76 a 0.51,0.51 0 0 1 0,0.17 h -1.22 v -11.12 h 1.27 z" />
  <path
     style="fill:#808080"
     id="path3790-5"
     d="m 176.9714,129.11387 h -1.28 v -1.73 c -2.49,2.28 -5.21,2.41 -8,1.2 a 4.18,4.18 0 0 1 -2.62,-4.13 c 0,-2 0,-3.93 0,-5.9 0,-0.2 0,-0.4 0,-0.62 h 1.28 v 6 c 0,2.45 1.07,3.72 3.5,4.13 a 5.47,5.47 0 0 0 4.18,-0.78 4,4 0 0 0 1.69,-3.53 c 0,-1.69 0,-3.38 0,-5.06 v -0.79 h 1.27 z" />
  <path
     style="fill:#808080"
     id="path3792-8"
     d="m 88.491404,127.10387 1,-0.76 a 7.36,7.36 0 0 0 7.16,1.56 3.46,3.46 0 0 0 0.89,-0.36 1.62,1.62 0 0 0 0.93,-1.58 1.42,1.42 0 0 0 -1.09,-1.3 c -0.88,-0.27 -1.78,-0.46 -2.68,-0.65 -0.9,-0.19 -2.09,-0.36 -3.13,-0.56 a 4.41,4.41 0 0 1 -1,-0.35 2.3,2.3 0 0 1 -1.53,-2 2.26,2.26 0 0 1 1.31,-2.4 11.32,11.32 0 0 1 3,-0.85 8.27,8.27 0 0 1 4.55,0.6 c 0.45,0.2 0.88,0.48 1.32,0.73 -0.62,0.88 -0.6,0.85 -1.41,0.44 a 7.78,7.78 0 0 0 -6.18,-0.32 1.92,1.92 0 0 0 -0.25,0.12 1.56,1.56 0 0 0 -1,1.44 1.41,1.41 0 0 0 1.01,1.36 c 0.92,0.28 1.87,0.48 2.81,0.68 0.94,0.2 2.05,0.36 3.06,0.57 a 4.46,4.46 0 0 1 1.1,0.42 2.43,2.43 0 0 1 0.31,4.29 7.62,7.62 0 0 1 -2.89,1 8.67,8.67 0 0 1 -6,-1.05 14.76,14.76 0 0 1 -1.29,-1.03 z" />
  <path
     style="fill:#808080"
     id="path3794-4"
     d="m 110.8114,117.85387 v 1 h -4.4 c -0.07,0.12 -0.12,0.18 -0.12,0.24 0,2.31 0,4.63 0,6.94 0.06,1.71 0.82,2.33 2.54,2.23 a 18.6,18.6 0 0 0 2,-0.34 l 0.4,0.74 a 5.11,5.11 0 0 1 -5.13,0 3.07,3.07 0 0 1 -1.09,-2.58 c 0,-2.11 0,-4.21 0,-6.31 v -0.82 h -2.78 v -1 h 2.74 v -3.07 l 1.28,-0.15 v 3.17 z" />
  <path
     style="fill:#808080"
     id="path3796-9"
     d="m 190.6914,120.04387 54,-0.42 v 0.28 q -27,0.65 -54,0.45 z" />
  <path
     style="fill:#808080"
     id="path3798-1"
     d="m 84.561404,129.11387 h -1.33 v -15.75 h 1.33 z" />
  <path
     style="fill:#808080"
     id="path3800-7"
     d="m 182.4914,129.12387 h -1.2 v -15.77 h 1.2 z" />
  <path
     style="fill:#808080"
     id="path3802-13"
     d="m 24.381408,121.54387 c 17.349996,-0.51 34.689996,-0.61 51.999996,-0.42 v 0.24 l -51.999996,0.39 z" />
</svg>
